<svg width="30" height="26" viewBox="0 0 30 26" fill="none" xmlns="http://www.w3.org/2000/svg">
<path d="M0.689943 0.186523L0.400146 1.34618L0.979873 1.49094L5.00569 2.49766L6.95816 5.42618L11.1046 17.8654L8.65783 22.7591H9.84165C9.69894 23.0482 9.62477 23.3663 9.6249 23.6888C9.6249 24.8553 10.5833 25.8138 11.7499 25.8138C12.9165 25.8138 13.8749 24.8553 13.8749 23.6888C13.8749 23.3561 13.7967 23.0405 13.6582 22.7591H20.4667C20.3239 23.0482 20.2498 23.3663 20.2499 23.6888C20.2499 24.8553 21.2083 25.8138 22.3749 25.8138C23.5415 25.8138 24.4999 24.8553 24.4999 23.6888C24.4999 23.3561 24.4217 23.0405 24.2832 22.7591H25.0976V21.5638H10.5919L12.1193 18.5091H24.9306L29.5791 4.56376H7.81972L5.74412 1.45004L1.26987 0.331555L0.689943 0.186523ZM8.32919 5.75894H14.3397V8.81363H9.34746L8.32919 5.75894ZM15.5351 5.75894H20.7147V8.81363H15.5351V5.75894ZM21.9101 5.75894H27.9206L26.9023 8.81363H21.9101V5.75894ZM9.74576 10.0089H14.3397V13.0636H10.764L9.74576 10.0089ZM15.5351 10.0089H20.7147V13.0636H15.5351V10.0089ZM21.9101 10.0089H26.504L25.4858 13.0636H21.9101V10.0089ZM11.1625 14.2589H14.3397V17.3136H12.1806L11.1625 14.2589ZM15.5351 14.2589H20.7147V17.3136H15.5351V14.2589ZM21.9101 14.2589H25.0873L24.0692 17.3136H21.9101V14.2589ZM11.7499 22.7589C12.2705 22.7589 12.6796 23.168 12.6796 23.6886C12.6796 24.2092 12.2705 24.6183 11.7499 24.6183C11.2293 24.6183 10.8202 24.2092 10.8202 23.6886C10.8202 23.168 11.2293 22.7589 11.7499 22.7589ZM22.3749 22.7589C22.8955 22.7589 23.3046 23.168 23.3046 23.6886C23.3046 24.2092 22.8955 24.6183 22.3749 24.6183C21.8543 24.6183 21.4452 24.2092 21.4452 23.6886C21.4452 23.168 21.8543 22.7589 22.3749 22.7589Z" fill="black"/>
</svg>
