<svg width="27" height="27" viewBox="0 0 27 27" fill="none" xmlns="http://www.w3.org/2000/svg">
<path d="M13.1667 0.5C5.9853 0.5 0.166748 6.31855 0.166748 13.5C0.166748 20.6815 5.9853 26.5 13.1667 26.5C20.3482 26.5 26.1667 20.6815 26.1667 13.5C26.1667 6.31855 20.3482 0.5 13.1667 0.5ZM17.3603 9.30645C18.2881 9.30645 19.0377 10.056 19.0377 10.9839C19.0377 11.9117 18.2881 12.6613 17.3603 12.6613C16.4325 12.6613 15.6829 11.9117 15.6829 10.9839C15.6829 10.056 16.4325 9.30645 17.3603 9.30645ZM8.9732 9.30645C9.90102 9.30645 10.6506 10.056 10.6506 10.9839C10.6506 11.9117 9.90102 12.6613 8.9732 12.6613C8.04538 12.6613 7.29578 11.9117 7.29578 10.9839C7.29578 10.056 8.04538 9.30645 8.9732 9.30645ZM19.1845 18.2282C17.6905 20.021 15.4994 21.0484 13.1667 21.0484C10.8341 21.0484 8.64296 20.021 7.14901 18.2282C6.4361 17.3738 7.72562 16.3044 8.43852 17.1536C9.61272 18.5637 11.3321 19.3657 13.1667 19.3657C15.0014 19.3657 16.7208 18.5585 17.895 17.1536C18.5974 16.3044 19.8922 17.3738 19.1845 18.2282Z" fill="#000000"/>
</svg>
