<svg width="27" height="29" viewBox="0 0 27 29" fill="none" xmlns="http://www.w3.org/2000/svg">
<path fill-rule="evenodd" clip-rule="evenodd" d="M6.63167 0.0551758H20.3683C22.0424 0.0551758 22.8788 0.0551759 23.5548 0.29062C24.1919 0.516998 24.7683 0.886978 25.2395 1.37191C25.7106 1.85684 26.0638 2.44371 26.2718 3.08706C26.5 3.78329 26.5 4.64418 26.5 6.3674V26.5954C26.5 27.8347 25.0772 28.4934 24.1773 27.6701C23.9249 27.4368 23.5937 27.3072 23.25 27.3072C22.9063 27.3072 22.5751 27.4368 22.3227 27.6701L21.625 28.3085C21.1827 28.7175 20.6024 28.9447 20 28.9447C19.3976 28.9447 18.8173 28.7175 18.375 28.3085C17.9327 27.8995 17.3524 27.6723 16.75 27.6723C16.1476 27.6723 15.5673 27.8995 15.125 28.3085C14.6827 28.7175 14.1024 28.9447 13.5 28.9447C12.8976 28.9447 12.3173 28.7175 11.875 28.3085C11.4327 27.8995 10.8524 27.6723 10.25 27.6723C9.64757 27.6723 9.0673 27.8995 8.625 28.3085C8.1827 28.7175 7.60243 28.9447 7 28.9447C6.39757 28.9447 5.8173 28.7175 5.375 28.3085L4.67733 27.6701C4.42486 27.4368 4.09375 27.3072 3.75 27.3072C3.40625 27.3072 3.07514 27.4368 2.82267 27.6701C1.92278 28.4934 0.5 27.8347 0.5 26.5954V6.3674C0.5 4.64418 0.5 3.78184 0.728222 3.08851C1.16156 1.76973 2.16544 0.735509 3.44522 0.29062C4.12122 0.0551759 4.95756 0.0551758 6.63167 0.0551758ZM6.27778 6.91629C5.99046 6.91629 5.71491 7.03042 5.51175 7.23359C5.30858 7.43675 5.19444 7.7123 5.19444 7.99962C5.19444 8.28694 5.30858 8.56249 5.51175 8.76565C5.71491 8.96882 5.99046 9.08295 6.27778 9.08295H7C7.28732 9.08295 7.56287 8.96882 7.76603 8.76565C7.9692 8.56249 8.08333 8.28694 8.08333 7.99962C8.08333 7.7123 7.9692 7.43675 7.76603 7.23359C7.56287 7.03042 7.28732 6.91629 7 6.91629H6.27778ZM11.3333 6.91629C11.046 6.91629 10.7705 7.03042 10.5673 7.23359C10.3641 7.43675 10.25 7.7123 10.25 7.99962C10.25 8.28694 10.3641 8.56249 10.5673 8.76565C10.7705 8.96882 11.046 9.08295 11.3333 9.08295H20.7222C21.0095 9.08295 21.2851 8.96882 21.4883 8.76565C21.6914 8.56249 21.8056 8.28694 21.8056 7.99962C21.8056 7.7123 21.6914 7.43675 21.4883 7.23359C21.2851 7.03042 21.0095 6.91629 20.7222 6.91629H11.3333ZM6.27778 11.9718C5.99046 11.9718 5.71491 12.086 5.51175 12.2891C5.30858 12.4923 5.19444 12.7679 5.19444 13.0552C5.19444 13.3425 5.30858 13.618 5.51175 13.8212C5.71491 14.0244 5.99046 14.1385 6.27778 14.1385H7C7.28732 14.1385 7.56287 14.0244 7.76603 13.8212C7.9692 13.618 8.08333 13.3425 8.08333 13.0552C8.08333 12.7679 7.9692 12.4923 7.76603 12.2891C7.56287 12.086 7.28732 11.9718 7 11.9718H6.27778ZM11.3333 11.9718C11.046 11.9718 10.7705 12.086 10.5673 12.2891C10.3641 12.4923 10.25 12.7679 10.25 13.0552C10.25 13.3425 10.3641 13.618 10.5673 13.8212C10.7705 14.0244 11.046 14.1385 11.3333 14.1385H20.7222C21.0095 14.1385 21.2851 14.0244 21.4883 13.8212C21.6914 13.618 21.8056 13.3425 21.8056 13.0552C21.8056 12.7679 21.6914 12.4923 21.4883 12.2891C21.2851 12.086 21.0095 11.9718 20.7222 11.9718H11.3333ZM6.27778 17.0274C5.99046 17.0274 5.71491 17.1415 5.51175 17.3447C5.30858 17.5479 5.19444 17.8234 5.19444 18.1107C5.19444 18.398 5.30858 18.6736 5.51175 18.8768C5.71491 19.0799 5.99046 19.1941 6.27778 19.1941H7C7.28732 19.1941 7.56287 19.0799 7.76603 18.8768C7.9692 18.6736 8.08333 18.398 8.08333 18.1107C8.08333 17.8234 7.9692 17.5479 7.76603 17.3447C7.56287 17.1415 7.28732 17.0274 7 17.0274H6.27778ZM11.3333 17.0274C11.046 17.0274 10.7705 17.1415 10.5673 17.3447C10.3641 17.5479 10.25 17.8234 10.25 18.1107C10.25 18.398 10.3641 18.6736 10.5673 18.8768C10.7705 19.0799 11.046 19.1941 11.3333 19.1941H20.7222C21.0095 19.1941 21.2851 19.0799 21.4883 18.8768C21.6914 18.6736 21.8056 18.398 21.8056 18.1107C21.8056 17.8234 21.6914 17.5479 21.4883 17.3447C21.2851 17.1415 21.0095 17.0274 20.7222 17.0274H11.3333Z" fill="#000000"/>
</svg>
