<svg width="27" height="23" viewBox="0 0 27 23" fill="none" xmlns="http://www.w3.org/2000/svg">
<path d="M20.4242 17.409V13.8635H16.8787V11.4999H20.4242V7.95443H22.7878V11.4999H26.3333V13.8635H22.7878V17.409H20.4242ZM12.1514 22.1363L8.39916 18.7681C6.98098 17.4878 5.76489 16.3453 4.75089 15.3408C3.7361 14.3363 2.89898 13.3908 2.23952 12.5044C1.57928 11.6181 1.09671 10.7613 0.791797 9.93398C0.4861 9.10671 0.333252 8.24004 0.333252 7.33398C0.333252 5.48246 0.953707 3.94098 2.19462 2.70953C3.43552 1.47886 4.98174 0.863525 6.83325 0.863525C7.85749 0.863525 8.83249 1.07507 9.75825 1.49816C10.684 1.92204 11.4817 2.52792 12.1514 3.3158C12.8211 2.52792 13.6189 1.92204 14.5446 1.49816C15.4704 1.07507 16.4454 0.863525 17.4696 0.863525C19.1439 0.863525 20.5471 1.37053 21.6793 2.38453C22.8122 3.39931 23.5166 4.58625 23.7923 5.94534C23.4378 5.80746 23.0833 5.70386 22.7287 5.63453C22.3742 5.56598 22.0295 5.53171 21.6946 5.53171C19.7052 5.53171 18.0113 6.22583 16.6128 7.61407C15.2143 9.0031 14.5151 10.6923 14.5151 12.6817C14.5151 13.7059 14.7219 14.6758 15.1355 15.5913C15.5492 16.5076 16.1302 17.2908 16.8787 17.9408C16.5045 18.2756 16.0168 18.7043 15.4156 19.2266C14.8153 19.7482 14.2984 20.2059 13.8651 20.5999L12.1514 22.1363Z" fill="#000000"/>
</svg>
