<svg width="28" height="28" viewBox="0 0 28 28" fill="none" xmlns="http://www.w3.org/2000/svg">
<g clip-path="url(#clip0_987_3946)">
<path d="M15.2813 3.33777C15.1916 3.11334 14.937 3.00396 14.7138 3.09409C14.4894 3.1829 14.3796 3.43709 14.468 3.66152C14.4763 3.68209 15.273 5.76327 14.454 8.62977C14.454 8.62977 14.4535 8.63284 14.4535 8.63459C13.922 9.11715 13.3777 9.62815 12.8155 10.1908C12.2218 10.7845 11.682 11.3593 11.1771 11.918C11.6137 7.90046 10.9592 4.86202 10.9273 4.71765C10.8748 4.48184 10.6411 4.3344 10.4053 4.38515C10.1695 4.43765 10.0208 4.67127 10.0728 4.90709C10.0811 4.94471 10.8704 8.61227 10.1297 13.1159C9.14095 14.295 8.35783 15.3646 7.7392 16.2926C8.04939 12.8363 7.45745 10.1041 7.42727 9.96765C7.37477 9.73184 7.14289 9.58002 6.90533 9.63559C6.66952 9.68765 6.52077 9.92127 6.57283 10.1571C6.58158 10.1951 7.39752 13.9852 6.59383 18.162C5.98877 19.2505 5.73939 19.9068 5.71445 19.9737C5.63133 20.2003 5.74683 20.4515 5.97345 20.535C6.02333 20.5534 6.07452 20.5626 6.12483 20.5626C6.30245 20.5626 6.46958 20.4532 6.5352 20.2769C6.54089 20.262 6.75395 19.7073 7.27195 18.7597C11.8386 17.567 16.0198 18.782 16.0622 18.7942C16.1038 18.8065 16.1458 18.8126 16.1873 18.8126C16.3759 18.8126 16.5496 18.6901 16.6065 18.5002C16.6756 18.2692 16.5443 18.0255 16.3129 17.956C16.1423 17.9043 12.3373 16.7962 7.87483 17.7215C8.49433 16.7082 9.36495 15.4386 10.5471 13.994C10.5698 13.9913 10.5926 13.9905 10.6145 13.9848C15.2498 12.7208 19.9625 13.9721 20.0098 13.9848C20.0483 13.9948 20.0868 14.0001 20.1248 14.0001C20.3173 14.0001 20.4941 13.8723 20.547 13.6776C20.6105 13.4445 20.4731 13.2043 20.2399 13.1404C20.054 13.0896 15.952 12.0038 11.4846 12.8884C12.0713 12.2216 12.7158 11.5282 13.4341 10.8094C14.051 10.1925 14.6491 9.63121 15.2292 9.1119C18.052 8.39046 20.852 9.16265 20.88 9.17096C20.9198 9.1819 20.96 9.18759 20.9998 9.18759C21.1906 9.18759 21.3656 9.06202 21.4203 8.86952C21.4863 8.63765 21.3525 8.39571 21.1197 8.32921C21.0151 8.2999 18.976 7.73115 16.5378 7.9884C20.2701 4.91671 22.8693 3.92227 22.9012 3.91046C23.1278 3.8269 23.2433 3.5749 23.1598 3.34871C23.0762 3.12165 22.8246 3.0079 22.5985 3.08971C22.4558 3.14221 19.6213 4.21846 15.5687 7.65327C15.9804 5.13415 15.3141 3.41959 15.2813 3.33777Z" fill="#000000"/>
<path d="M26.6405 0.677745C26.581 0.560058 26.4716 0.47562 26.3434 0.448058C25.0397 0.162808 23.2941 0.0184326 21.1564 0.0184326C19.0031 0.0184326 16.5347 0.17287 14.3835 0.441495C7.71774 1.27406 3.0623 5.9505 3.0623 11.8126V19.9842L1.35736 26.3485C1.17011 27.0476 1.58618 27.7677 2.28574 27.9559C2.98486 28.1422 3.70543 27.7262 3.89268 27.0279L4.92168 23.1876H13.5623C19.8347 23.1876 24.9373 18.085 24.9373 11.8126C24.9373 8.8975 24.9373 4.90531 26.6497 1.05268C26.7031 0.932808 26.6996 0.794558 26.6405 0.677745ZM3.04743 26.8013C2.98486 27.0341 2.74511 27.1727 2.51193 27.1106C2.2783 27.0472 2.13961 26.8083 2.20218 26.5747L3.31868 22.3371C3.49586 22.6311 3.7553 22.8673 4.06768 23.0152L3.04743 26.8013ZM24.0623 11.8126C24.0623 17.602 19.3517 22.3126 13.5623 22.3126H4.8123C4.3293 22.3126 3.9373 21.9206 3.9373 21.4376V21.0001V11.8126C3.9373 6.4055 8.2773 2.0865 14.4915 1.30906C16.6086 1.04481 19.0376 0.892995 21.156 0.892995C22.927 0.892995 24.4604 0.99887 25.6351 1.20143C24.0623 5.05975 24.0623 8.94387 24.0623 11.8126Z" fill="#000000"/>
</g>
<defs>
<clipPath id="clip0_987_3946">
<rect width="28" height="28" fill="white"/>
</clipPath>
</defs>
</svg>
