<svg width="42" height="42" viewBox="0 0 42 42" fill="none" xmlns="http://www.w3.org/2000/svg">
<path d="M8.94517 2.19201L12.2328 9.4204C12.7808 9.31525 14.4246 8.21937 15.3287 7.35744L8.94517 2.19201Z" fill="#E0D0B5"/>
<path d="M33.6423 40L36.3423 37.8082L29.8739 28.4349L26.9282 30.41L33.6423 40Z" fill="#E0D0B5"/>
<path d="M34.278 15.2324C34.1004 15.4218 33.8915 15.5639 33.6534 15.6487L11.5338 30.3883C11.3083 32.5705 12.5747 36.6789 16.7115 37.2603L26.9282 30.41L29.8739 28.4349L38.2742 22.8026C36.9471 23.2637 35.2209 21.7805 34.4186 19.4899C33.7641 17.6211 33.9268 15.7923 34.7295 14.9316L34.278 15.2324Z" fill="#EA5220"/>
<path d="M38.2742 22.8026C39.6013 22.3415 40.0268 20.1107 39.2245 17.8201C38.4223 15.5295 36.6961 14.0463 35.3689 14.5074L35.3628 14.5096L34.7295 14.9316C33.9268 15.7923 33.7641 17.6211 34.4186 19.4899C35.2209 21.7805 36.9471 23.2637 38.2742 22.8026Z" fill="#EA5220"/>
<path d="M29.6896 8.05624C30.5796 7.24464 30.7838 5.34239 30.1025 3.39692C29.3002 1.10629 27.574 -0.376838 26.2469 0.0842631C26.2444 0.0851122 26.242 0.0859673 26.2396 0.0868284L25.6083 0.50747C24.8048 1.36772 24.6418 3.19727 25.2966 5.06672C26.0989 7.35735 27.8251 8.84048 29.1522 8.37938C29.1972 8.36373 29.2412 8.34604 29.2842 8.32638L29.6896 8.05624Z" fill="#EA5220"/>
<path d="M29.1522 8.37938C27.8251 8.84048 26.0989 7.35735 25.2966 5.06672C24.6418 3.19727 24.8048 1.36772 25.6083 0.50747L15.3287 7.35744C14.4246 8.21937 12.7808 9.31525 12.2328 9.4204L2.41141 15.965C2.18593 18.1472 2.76918 22.657 6.90602 23.2383L29.2842 8.32638C29.2412 8.34604 29.1972 8.36373 29.1522 8.37938Z" fill="#EA5220"/>
<path d="M33.6423 15.6526C32.3152 16.1137 30.589 14.6305 29.7868 12.3399C29.1341 10.4763 29.294 8.65238 30.0909 7.78878L29.6896 8.05624C29.5672 8.1678 29.4319 8.25876 29.2842 8.32638L6.90602 23.2383C6.68054 25.4205 7.39696 29.807 11.5338 30.3883L33.6534 15.6487L33.6423 15.6526Z" fill="#FEF4E3"/>
<path d="M29.7868 12.3399C30.589 14.6305 32.3152 16.1137 33.6423 15.6526L33.6534 15.6487L34.278 15.2324C35.084 14.3735 35.2482 12.5418 34.5926 10.6701C33.7904 8.37947 32.0642 6.89634 30.7371 7.35744C30.4897 7.44341 30.2736 7.59088 30.0909 7.78878C29.294 8.65238 29.1341 10.4763 29.7868 12.3399Z" fill="#FEF4E3"/>
<path d="M33.6423 15.6526C32.3152 16.1137 30.589 14.6305 29.7868 12.3399C29.1341 10.4763 29.294 8.65238 30.0909 7.78878M33.6423 15.6526C33.646 15.6513 33.6497 15.65 33.6534 15.6487M33.6423 15.6526L33.6534 15.6487M38.2742 22.8026C39.6013 22.3415 40.0268 20.1107 39.2245 17.8201C38.4223 15.5295 36.6961 14.0463 35.3689 14.5074L35.3628 14.5096M38.2742 22.8026C36.9471 23.2637 35.2209 21.7805 34.4186 19.4899C33.7641 17.6211 33.9268 15.7923 34.7295 14.9316M38.2742 22.8026L29.8739 28.4349M35.366 14.5074L35.3628 14.5096M11.5338 30.3883C7.39696 29.807 6.68054 25.4205 6.90602 23.2383M11.5338 30.3883C11.3083 32.5705 12.5747 36.6789 16.7115 37.2603L26.9282 30.41M11.5338 30.3883L33.6534 15.6487M30.7382 7.35744L30.0909 7.78878M6.90602 23.2383C2.76918 22.657 2.18593 18.1472 2.41141 15.965L12.2328 9.4204M6.90602 23.2383L29.2842 8.32638M26.2436 0.0841233L26.2396 0.0868284M12.2328 9.4204L8.94517 2.19201L15.3287 7.35744M12.2328 9.4204C12.7808 9.31525 14.4246 8.21937 15.3287 7.35744M15.3287 7.35744L25.6083 0.50747M26.9282 30.41L33.6423 40L36.3423 37.8082L29.8739 28.4349M26.9282 30.41L29.8739 28.4349M34.278 15.2324C34.1004 15.4218 33.8915 15.5639 33.6534 15.6487M34.278 15.2324L34.7295 14.9316M34.278 15.2324L33.6534 15.6487M34.278 15.2324C35.084 14.3735 35.2482 12.5418 34.5926 10.6701C33.7904 8.37947 32.0642 6.89634 30.7371 7.35744C30.4897 7.44341 30.2736 7.59088 30.0909 7.78878M34.7295 14.9316L35.3628 14.5096M34.7295 14.9316C34.9092 14.739 35.1209 14.5948 35.3628 14.5096M29.6896 8.05624C30.5796 7.24464 30.7838 5.34239 30.1025 3.39692C29.3002 1.10629 27.574 -0.376838 26.2469 0.0842631C26.2444 0.0851122 26.242 0.0859673 26.2396 0.0868284M29.6896 8.05624L29.2842 8.32638M29.6896 8.05624C29.5672 8.1678 29.4319 8.25876 29.2842 8.32638M29.6896 8.05624L30.0909 7.78878M26.2396 0.0868284L25.6083 0.50747M26.2396 0.0868284C25.9986 0.171948 25.7875 0.315599 25.6083 0.50747M25.6083 0.50747C24.8048 1.36772 24.6418 3.19727 25.2966 5.06672C26.0989 7.35735 27.8251 8.84048 29.1522 8.37938C29.1972 8.36373 29.2412 8.34604 29.2842 8.32638" stroke="black" stroke-linejoin="round"/>
<path d="M31.0701 3.14445C31.0632 3.1181 31.0553 3.09204 31.0463 3.06634C30.5974 1.7847 29.8752 0.682676 29.0211 -0.0502827C28.1903 -0.763381 27.0573 -1.25732 25.9154 -0.86058C25.8355 -0.832821 25.7595 -0.795038 25.6891 -0.748137L15.4186 6.09582L9.61208 0.898953C9.26331 0.5868 8.74468 0.558328 8.36384 0.830426C7.983 1.10252 7.84184 1.60239 8.02411 2.0335L10.9894 9.04726L1.85688 15.1328C1.60875 15.2982 1.44735 15.5656 1.4167 15.8622C1.29152 17.0738 1.38484 18.9278 2.10449 20.5977C2.74981 22.0952 3.92358 23.4788 5.86921 24.0388C5.87481 25.1713 6.08663 26.5602 6.67667 27.834C7.35913 29.3072 8.56765 30.6507 10.5155 31.1959C10.5663 32.3531 10.9091 33.712 11.6243 34.9307C12.5585 36.5224 14.1543 37.9107 16.5724 38.2505C16.8161 38.2848 17.064 38.2279 17.2684 38.0908L26.6711 31.7864L32.8232 40.5735C32.9823 40.8008 33.2289 40.9518 33.5037 40.9903C33.7786 41.0288 34.0571 40.9513 34.2726 40.7763L36.9725 38.5846C37.3779 38.2555 37.4618 37.6699 37.1653 37.2402L31.2726 28.7011L38.7372 23.6961C39.7916 23.2625 40.3334 22.2163 40.5302 21.1847C40.7407 20.0809 40.617 18.7706 40.1683 17.4895C39.7005 16.1537 38.8128 14.9924 37.8405 14.2189C37.3526 13.8307 36.8144 13.5171 36.2632 13.3376C36.1949 13.3153 36.1253 13.2948 36.0547 13.2764C36.0629 12.9466 36.0365 12.6145 35.9938 12.3036C35.889 11.5406 35.6707 10.7982 35.4958 10.3293C35.032 9.0115 34.1873 7.86132 33.2472 7.09125C32.7429 6.67813 32.1212 6.30678 31.4627 6.13982C31.4711 5.81627 31.4544 5.48422 31.4249 5.16749C31.3527 4.39161 31.1955 3.62512 31.0701 3.14445Z" stroke="black" stroke-width="2" stroke-linejoin="round"/>
</svg>
