<svg width="38" height="40" viewBox="0 0 38 40" fill="none" xmlns="http://www.w3.org/2000/svg">
<path d="M10.72 22.04H15.04V24.18H10.72V22.04ZM13.64 17.28H16.3V30.78H13.64V17.28ZM4.08 33.34H16.72V35.46H4.08V33.34ZM4.08 29.64H6.74V34.6H4.08V29.64ZM5.08 19.7H7.24V20.86C7.24 24.34 5.6 27.56 2.04 28.74L0.7 26.62C3.76 25.62 5.08 23.2 5.08 20.86V19.7ZM5.64 19.7H7.78V20.86C7.78 23.02 9.04 25.32 11.96 26.3L10.66 28.38C7.22 27.24 5.64 24.16 5.64 20.86V19.7ZM1.42 18.52H11.38V20.62H1.42V18.52ZM26.7384 24.28H29.6784V26.42H26.7384V24.28ZM22.4384 22.4H24.4384V22.88C24.4384 26.74 23.3184 30.6 20.3584 32.3L18.8584 30.3C21.4984 28.76 22.4384 25.72 22.4384 22.88V22.4ZM22.9584 22.4H24.9584V22.88C24.9584 25.68 25.9184 28.5 28.5384 29.9L27.0984 31.86C24.0984 30.3 22.9584 26.68 22.9584 22.88V22.4ZM19.5584 20.36H27.8184V22.5H19.5584V20.36ZM22.4384 17.88H24.9584V22.1H22.4384V17.88ZM32.5784 17.26H35.0984V35.78H32.5784V17.26ZM28.8384 17.56H31.3184V34.94H28.8384V17.56Z" fill="black"/>
</svg>
