<svg width="44" height="38" viewBox="0 0 44 38" fill="none" xmlns="http://www.w3.org/2000/svg">
<path d="M32.9858 3.51489C32.6515 4.7268 31.2369 7.38627 30.5713 8.56451C30.8995 8.81158 31.2332 9.16077 31.5623 9.57444C31.8499 9.93597 32.1339 10.3468 32.4075 10.7817C32.6253 11.1278 32.8365 11.4892 33.0377 11.8532C33.7134 13.0756 34.2761 14.3275 34.5955 15.129C35.058 14.8803 35.7874 14.411 36.4855 13.8057C37.2046 13.1821 37.8905 12.4142 38.2172 11.5943C38.8852 9.91769 38.4442 8.58901 37.8148 7.89705C37.6859 7.75538 37.5491 7.6404 37.4124 7.55459C36.7685 7.15062 35.2662 7.04963 34.5955 7.04963C34.7296 6.37634 34.9979 4.7268 34.9979 3.51489C34.9979 2.30298 34.4109 2 34.1174 2C33.8795 2 33.3202 2.30298 32.9858 3.51489Z" fill="url(#paint0_radial_71_10)"/>
<path d="M37.955 19.8045C38.1765 19.256 38.7806 18.1588 39.4244 18.1588C39.5634 18.1588 39.6887 18.1991 39.8008 18.2666C39.7519 17.9903 39.684 17.5758 39.6193 17.1249C39.5179 16.4183 39.4244 15.6223 39.4244 15.129C39.4244 14.3211 41.0341 12.6042 41.4365 11.5943C43.4486 7.04963 39.5586 6.94129 37.8148 7.89705C38.4442 8.58901 38.8852 9.91769 38.2172 11.5943C37.8905 12.4142 37.2046 13.1821 36.4855 13.8057C35.7874 14.411 35.058 14.8803 34.5955 15.129C34.6322 15.5554 34.655 16.0933 34.6428 16.6439C34.7207 17.3969 35.1704 18.7275 36.3457 18.0259C36.4434 17.8762 36.5333 17.747 36.6075 17.6538C37.01 17.1489 37.8148 17.6538 37.8148 18.1588C37.8148 18.5628 37.4133 19.3486 37.2126 19.6911C37.4659 19.7197 37.7174 19.7572 37.955 19.8045Z" fill="url(#paint1_radial_71_10)"/>
<path d="M37.8148 18.1588C37.8148 17.6538 37.01 17.1489 36.6075 17.6538C36.5333 17.747 36.4434 17.8762 36.3457 18.0259C36.0196 18.5254 35.6067 19.2531 35.4003 19.6305C35.8729 19.602 36.5491 19.6161 37.2126 19.6911C37.4133 19.3486 37.8148 18.5628 37.8148 18.1588Z" fill="#FF6836"/>
<path d="M37.955 19.8045C38.7717 19.9673 39.4244 20.2467 39.4244 20.6836C40.3902 20.2796 40.5539 19.6967 40.515 19.4558C40.4403 19.1168 40.2081 18.5119 39.8008 18.2666C39.6887 18.1991 39.5634 18.1588 39.4244 18.1588C38.7806 18.1588 38.1765 19.256 37.955 19.8045Z" fill="#FF6836"/>
<path d="M34.1931 21.1886C34.7021 21.8273 35.4003 21.6935 36.6075 21.6935C37.6587 21.6935 38.5382 22.1242 39.022 21.8606C39.2791 21.7205 39.4244 21.3845 39.4244 20.6836C39.4244 20.2467 38.7717 19.9673 37.955 19.8045C37.7174 19.7572 37.4659 19.7197 37.2126 19.6911C36.5491 19.6161 35.8729 19.602 35.4003 19.6305C35.2399 19.6402 35.1029 19.6549 34.9979 19.6737C34.2521 19.6737 33.8518 20.541 34.1174 21.07C34.1384 21.1118 34.1636 21.1516 34.1931 21.1886Z" fill="#FF6836"/>
<path d="M36.6075 21.6935C35.4003 21.6935 34.7021 21.8273 34.1931 21.1886C34.1636 21.1516 34.1384 21.1118 34.1174 21.07C33.505 21.722 33.3509 22.2747 33.4037 22.7035C33.4735 23.2692 33.9037 23.6192 34.1174 23.6969C34.1474 23.7079 34.1732 23.7134 34.1931 23.7134C34.2699 23.7172 34.3515 23.7214 34.4374 23.726C35.3642 23.7755 36.7786 23.8715 37.8148 23.9961C38.3704 24.0629 38.8173 24.1379 39.022 24.2184C39.6438 24.4628 40.4536 22.1985 39.022 21.8606C38.5382 22.1242 37.6587 21.6935 36.6075 21.6935Z" fill="#FF6836"/>
<path d="M32.181 25.7332C32.8249 25.7332 33.8743 24.3757 34.1174 23.6969C33.9037 23.6192 33.4735 23.2692 33.4037 22.7035C32.962 22.8135 32.2316 23.2973 31.7786 23.8449C31.5384 24.1352 31.3762 24.4434 31.3762 24.7233C31.3762 25.5313 31.7786 25.7332 32.181 25.7332Z" fill="#FF6836"/>
<path d="M34.4374 23.726C33.3882 24.7233 34.2735 27.3491 36.2051 25.7332C36.6075 25.4167 37.4928 24.6262 37.8148 23.9961C36.7786 23.8715 35.3642 23.7755 34.4374 23.726Z" fill="#FF6836"/>
<path d="M34.1174 21.07C33.8518 20.541 34.2521 19.6737 34.9979 19.6737C35.1029 19.6549 35.2399 19.6402 35.4003 19.6305C35.6067 19.2531 36.0196 18.5254 36.3457 18.0259C35.1704 18.7275 34.7207 17.3969 34.6428 16.6439C34.6103 18.106 34.3301 19.6585 33.4037 19.4558C32.1284 19.1768 29.3744 21.8413 28.1569 23.2084C27.4007 22.8526 25.9118 21.9451 24.5351 20.5921C24.1588 20.2221 23.7908 19.8189 23.4484 19.3845C23.266 19.153 23.0908 18.9127 22.9255 18.6638C22.4491 17.9465 22.1237 17.319 21.9091 16.7724C21.7921 17.5672 21.9711 18.4589 22.3445 19.3845C22.6726 20.1979 23.1507 21.0374 23.7099 21.8606C25.1843 24.0309 27.2222 26.0871 28.5593 27.2481C29.5251 25.6323 31.1079 24.3061 31.7786 23.8449C32.2316 23.2973 32.962 22.8135 33.4037 22.7035C33.3509 22.2747 33.505 21.722 34.1174 21.07Z" fill="#D27753"/>
<path d="M20.1086 24.7233C15.7924 23.7376 13.6949 21.7137 13.2676 21.1886C13.1687 21.0468 13.0675 20.8778 12.9688 20.6836C12.7868 21.1896 12.8443 22.1823 13.7587 23.3325C14.3652 24.0955 15.3487 24.9277 16.8893 25.7332C20.7525 27.7531 21.1817 27.9214 20.9134 27.7531C21.6443 25.508 23.2269 21.1863 23.7099 21.8606C23.1507 21.0374 22.6726 20.1979 22.3445 19.3845C21.5577 19.1532 20.5807 23.0898 20.1086 24.7233Z" fill="#D27753"/>
<path d="M9.24344 23.2084C5.38027 22.4005 3.87793 20.3225 3.60965 19.3845C3.20724 20.6592 3.60965 23.8144 8.43861 26.2382C8.97516 26.5749 10.3702 27.3491 11.6579 27.7531C12.1195 26.4892 13.1858 23.8357 13.7587 23.3325C12.8443 22.1823 12.7868 21.1896 12.9688 20.6836C12.891 20.5306 12.8149 20.3619 12.7428 20.1787C12.9669 23.4104 10.5032 23.5451 9.24344 23.2084Z" fill="#D27753"/>
<path d="M30.5713 8.56451C29.4982 7.38627 26.7887 5.83772 24.5351 9.06948C24.3835 9.28691 24.2414 9.49337 24.108 9.68965C23.1679 11.0732 22.663 11.9514 22.3445 12.6042C22.0365 13.2355 21.9028 13.656 21.7182 14.1191C21.5153 14.6285 21.3986 15.4719 21.9091 16.7724C22.1237 17.319 22.4491 17.9465 22.9255 18.6638C23.0908 18.9127 23.266 19.153 23.4484 19.3845C23.7908 19.8189 24.1588 20.2221 24.5351 20.5921C25.9118 21.9451 27.4007 22.8526 28.1569 23.2084C29.3744 21.8413 32.1284 19.1768 33.4037 19.4558C34.3301 19.6585 34.6103 18.106 34.6428 16.6439C34.655 16.0933 34.6322 15.5554 34.5955 15.129C34.2761 14.3275 33.7134 13.0756 33.0377 11.8532C32.8365 11.4892 32.6253 11.1278 32.4075 10.7817C32.1339 10.3468 31.8499 9.93597 31.5623 9.57444C31.2332 9.16077 30.8995 8.81158 30.5713 8.56451Z" fill="#FAD6C2"/>
<path d="M21.9091 16.7724C21.3986 15.4719 21.5153 14.6285 21.7182 14.1191C21.9028 13.656 22.0365 13.2355 22.3445 12.6042C21.5932 11.5438 20.3078 10.2303 18.8526 9.66392C17.7473 9.2337 16.544 9.23452 15.4024 10.1047C14.9458 10.4528 14.499 10.94 14.0724 11.5943C13.962 11.7636 13.8575 11.9319 13.7587 12.0993C11.7512 15.4972 12.0709 18.4708 12.7428 20.1787C12.8149 20.3619 12.891 20.5306 12.9688 20.6836C13.0675 20.8778 13.1687 21.0468 13.2676 21.1886C13.6949 21.7137 15.7924 23.7376 20.1086 24.7233C20.5807 23.0898 21.5577 19.1532 22.3445 19.3845C21.9711 18.4589 21.7921 17.5672 21.9091 16.7724Z" fill="#FAD6C2"/>
<path d="M3.60965 19.3845C3.87793 20.3225 5.38027 22.4005 9.24344 23.2084C10.5032 23.5451 12.9669 23.4104 12.7428 20.1787C12.0709 18.4708 11.7512 15.4972 13.7587 12.0993C13.4293 11.6868 13.0172 11.2289 12.5499 10.7817C10.5379 8.85628 7.50092 7.12899 5.62172 10.0794C4.26571 12.2084 3.70698 14.4906 3.53584 16.3352C3.41472 17.6406 3.48773 18.7269 3.60965 19.3845Z" fill="#FAD6C2"/>
<path d="M18.8526 9.66392C20.3078 10.2303 21.5932 11.5438 22.3445 12.6042C22.663 11.9514 23.1679 11.0732 24.108 9.68965C23.1963 9.61374 22.2641 9.57444 21.3158 9.57444C20.4813 9.57444 19.6592 9.60487 18.8526 9.66392Z" fill="#FEF4E3"/>
<path d="M13.7587 12.0993C13.8575 11.9319 13.962 11.7636 14.0724 11.5943C14.499 10.94 14.9458 10.4528 15.4024 10.1047C14.4145 10.2872 13.4613 10.5142 12.5499 10.7817C13.0172 11.2289 13.4293 11.6868 13.7587 12.0993Z" fill="#FEF4E3"/>
<path d="M2 20.6836C2 21.734 2.25345 22.7503 2.72709 23.7134C3.20816 24.6916 3.91637 25.615 4.81689 26.4635C8.20883 29.6594 14.3291 31.7928 21.3158 31.7928C28.3025 31.7928 34.4228 29.6594 37.8148 26.4635C38.7153 25.615 39.4235 24.6916 39.9046 23.7134C40.3782 22.7503 40.6317 21.734 40.6317 20.6836C40.6317 20.2686 40.5921 19.859 40.515 19.4558C40.5539 19.6967 40.3902 20.2796 39.4244 20.6836C39.4244 21.3845 39.2791 21.7205 39.022 21.8606C40.4536 22.1985 39.6438 24.4628 39.022 24.2184C38.8173 24.1379 38.3704 24.0629 37.8148 23.9961C37.4928 24.6262 36.6075 25.4167 36.2051 25.7332C34.2735 27.3491 33.3882 24.7233 34.4374 23.726C34.3515 23.7214 34.2699 23.7172 34.1931 23.7134C34.1732 23.7134 34.1474 23.7079 34.1174 23.6969C33.8743 24.3757 32.8249 25.7332 32.181 25.7332C31.7786 25.7332 31.3762 25.5313 31.3762 24.7233C31.3762 24.4434 31.5384 24.1352 31.7786 23.8449C31.1079 24.3061 29.5251 25.6323 28.5593 27.2481C27.2222 26.0871 25.1843 24.0309 23.7099 21.8606C23.2269 21.1863 21.6443 25.508 20.9134 27.7531C21.1817 27.9214 20.7525 27.7531 16.8893 25.7332C15.3487 24.9277 14.3652 24.0955 13.7587 23.3325C13.1858 23.8357 12.1195 26.4892 11.6579 27.7531C10.3702 27.3491 8.97516 26.5749 8.43861 26.2382C3.60965 23.8144 3.20724 20.6592 3.60965 19.3845C3.48773 18.7269 3.41472 17.6406 3.53584 16.3352C2.5471 17.6707 2 19.1404 2 20.6836Z" fill="#FEF4E3"/>
<path d="M21.3158 31.7928C14.3291 31.7928 8.20883 29.6594 4.81689 26.4635C9.64585 38.3573 31.6981 39.9747 37.8148 26.4635C34.4228 29.6594 28.3025 31.7928 21.3158 31.7928Z" fill="#FEF4E3"/>
<path d="M39.4244 20.6836C39.4244 21.3845 39.2791 21.7205 39.022 21.8606M39.4244 20.6836C39.4244 20.2467 38.7717 19.9673 37.955 19.8045M39.4244 20.6836C40.3902 20.2796 40.5539 19.6967 40.515 19.4558M34.1174 21.07C34.1384 21.1118 34.1636 21.1516 34.1931 21.1886C34.7021 21.8273 35.4003 21.6935 36.6075 21.6935C37.6587 21.6935 38.5382 22.1242 39.022 21.8606M34.1174 21.07C33.8518 20.541 34.2521 19.6737 34.9979 19.6737C35.1029 19.6549 35.2399 19.6402 35.4003 19.6305M34.1174 21.07C33.505 21.722 33.3509 22.2747 33.4037 22.7035M39.022 21.8606C40.4536 22.1985 39.6438 24.4628 39.022 24.2184C38.8173 24.1379 38.3704 24.0629 37.8148 23.9961M34.4374 23.726C34.3515 23.7214 34.2699 23.7172 34.1931 23.7134C34.1732 23.7134 34.1474 23.7079 34.1174 23.6969M34.4374 23.726C33.3882 24.7233 34.2735 27.3491 36.2051 25.7332C36.6075 25.4167 37.4928 24.6262 37.8148 23.9961M34.4374 23.726C35.3642 23.7755 36.7786 23.8715 37.8148 23.9961M37.955 19.8045C38.1765 19.256 38.7806 18.1588 39.4244 18.1588C39.5634 18.1588 39.6887 18.1991 39.8008 18.2666M37.955 19.8045C37.7174 19.7572 37.4659 19.7197 37.2126 19.6911M40.515 19.4558C40.5921 19.859 40.6317 20.2686 40.6317 20.6836C40.6317 21.734 40.3782 22.7503 39.9046 23.7134C39.4235 24.6916 38.7153 25.615 37.8148 26.4635M40.515 19.4558C40.4403 19.1168 40.2081 18.5119 39.8008 18.2666M40.515 19.4558C40.3609 18.6497 40.0569 17.8696 39.6193 17.1249M34.1174 23.6969C33.8743 24.3757 32.8249 25.7332 32.181 25.7332C31.7786 25.7332 31.3762 25.5313 31.3762 24.7233C31.3762 24.4434 31.5384 24.1352 31.7786 23.8449M34.1174 23.6969C33.9037 23.6192 33.4735 23.2692 33.4037 22.7035M33.4037 22.7035C32.962 22.8135 32.2316 23.2973 31.7786 23.8449M35.4003 19.6305C35.8729 19.602 36.5491 19.6161 37.2126 19.6911M35.4003 19.6305C35.6067 19.2531 36.0196 18.5254 36.3457 18.0259M37.2126 19.6911C37.4133 19.3486 37.8148 18.5628 37.8148 18.1588C37.8148 17.6538 37.01 17.1489 36.6075 17.6538C36.5333 17.747 36.4434 17.8762 36.3457 18.0259M30.5713 8.56451C31.2369 7.38627 32.6515 4.7268 32.9858 3.51489C33.3202 2.30298 33.8795 2 34.1174 2C34.4109 2 34.9979 2.30298 34.9979 3.51489C34.9979 4.7268 34.7296 6.37634 34.5955 7.04963C35.2662 7.04963 36.7685 7.15062 37.4124 7.55459C37.5491 7.6404 37.6859 7.75538 37.8148 7.89705M30.5713 8.56451C29.4982 7.38627 26.7887 5.83772 24.5351 9.06948C24.3835 9.28691 24.2414 9.49337 24.108 9.68965M30.5713 8.56451C30.8995 8.81158 31.2332 9.16077 31.5623 9.57444C31.8499 9.93597 32.1339 10.3468 32.4075 10.7817C32.6253 11.1278 32.8365 11.4892 33.0377 11.8532C33.7134 13.0756 34.2761 14.3275 34.5955 15.129M34.5955 15.129C34.6322 15.5554 34.655 16.0933 34.6428 16.6439M34.5955 15.129C35.058 14.8803 35.7874 14.411 36.4855 13.8057C37.2046 13.1821 37.8905 12.4142 38.2172 11.5943C38.8852 9.91769 38.4442 8.58901 37.8148 7.89705M31.7786 23.8449C31.1079 24.3061 29.5251 25.6323 28.5593 27.2481C27.2222 26.0871 25.1843 24.0309 23.7099 21.8606M21.9091 16.7724C21.3986 15.4719 21.5153 14.6285 21.7182 14.1191C21.9028 13.656 22.0365 13.2355 22.3445 12.6042M21.9091 16.7724C22.1237 17.319 22.4491 17.9465 22.9255 18.6638C23.0908 18.9127 23.266 19.153 23.4484 19.3845C23.7908 19.8189 24.1588 20.2221 24.5351 20.5921C25.9118 21.9451 27.4007 22.8526 28.1569 23.2084C29.3744 21.8413 32.1284 19.1768 33.4037 19.4558C34.3301 19.6585 34.6103 18.106 34.6428 16.6439M21.9091 16.7724C21.7921 17.5672 21.9711 18.4589 22.3445 19.3845M37.8148 7.89705C39.5586 6.94129 43.4486 7.04963 41.4365 11.5943C41.0341 12.6042 39.4244 14.3211 39.4244 15.129C39.4244 15.6223 39.5179 16.4183 39.6193 17.1249M39.8008 18.2666C39.7519 17.9903 39.684 17.5758 39.6193 17.1249M34.6428 16.6439C34.7207 17.3969 35.1704 18.7275 36.3457 18.0259M22.3445 12.6042C21.5932 11.5438 20.3078 10.2303 18.8526 9.66392M22.3445 12.6042C22.663 11.9514 23.1679 11.0732 24.108 9.68965M22.3445 19.3845C21.5577 19.1532 20.5807 23.0898 20.1086 24.7233C15.7924 23.7376 13.6949 21.7137 13.2676 21.1886C13.1687 21.0468 13.0675 20.8778 12.9688 20.6836M22.3445 19.3845C22.6726 20.1979 23.1507 21.0374 23.7099 21.8606M12.9688 20.6836C12.891 20.5306 12.8149 20.3619 12.7428 20.1787M12.9688 20.6836C12.7868 21.1896 12.8443 22.1823 13.7587 23.3325M23.7099 21.8606C23.2269 21.1863 21.6443 25.508 20.9134 27.7531C21.1817 27.9214 20.7525 27.7531 16.8893 25.7332C15.3487 24.9277 14.3652 24.0955 13.7587 23.3325M13.7587 12.0993C13.8575 11.9319 13.962 11.7636 14.0724 11.5943C14.499 10.94 14.9458 10.4528 15.4024 10.1047M13.7587 12.0993C11.7512 15.4972 12.0709 18.4708 12.7428 20.1787M13.7587 12.0993C13.4293 11.6868 13.0172 11.2289 12.5499 10.7817M3.60965 19.3845C3.87793 20.3225 5.38027 22.4005 9.24344 23.2084C10.5032 23.5451 12.9669 23.4104 12.7428 20.1787M3.60965 19.3845C3.20724 20.6592 3.60965 23.8144 8.43861 26.2382C8.97516 26.5749 10.3702 27.3491 11.6579 27.7531C12.1195 26.4892 13.1858 23.8357 13.7587 23.3325M3.60965 19.3845C3.48773 18.7269 3.41472 17.6406 3.53584 16.3352M3.53584 16.3352C3.70698 14.4906 4.26571 12.2084 5.62172 10.0794C7.50092 7.12899 10.5379 8.85628 12.5499 10.7817M3.53584 16.3352C2.5471 17.6707 2 19.1404 2 20.6836C2 21.734 2.25345 22.7503 2.72709 23.7134C3.20816 24.6916 3.91637 25.615 4.81689 26.4635M12.5499 10.7817C13.4613 10.5142 14.4145 10.2872 15.4024 10.1047M15.4024 10.1047C16.544 9.23452 17.7473 9.2337 18.8526 9.66392M18.8526 9.66392C19.6592 9.60487 20.4813 9.57444 21.3158 9.57444C22.2641 9.57444 23.1963 9.61374 24.108 9.68965M4.81689 26.4635C8.20883 29.6594 14.3291 31.7928 21.3158 31.7928C28.3025 31.7928 34.4228 29.6594 37.8148 26.4635M4.81689 26.4635C9.64585 38.3573 31.6981 39.9747 37.8148 26.4635" stroke="black"/>
<path d="M1 20.6836C1 21.8994 1.29425 23.0658 1.82973 24.1547C2.34257 25.1975 3.07373 26.1639 3.97382 27.0406C6.65457 33.3513 13.7553 36.7829 20.8036 36.9899C27.8961 37.1983 35.3285 34.1574 38.6437 27.0543C39.5503 26.174 40.2864 25.203 40.8019 24.1547C41.3374 23.0658 41.6317 21.8994 41.6317 20.6836C41.6317 20.2047 41.586 19.7322 41.4972 19.268C41.3322 18.4045 41.0196 17.5771 40.5827 16.795C40.4952 16.1601 40.4274 15.5333 40.4245 15.1539C40.4245 15.1539 40.4246 15.1539 40.4246 15.154C40.4274 15.1545 40.447 15.0657 40.5616 14.854C40.691 14.6151 40.8776 14.3316 41.1028 14.0051C41.1662 13.9131 41.2336 13.8165 41.3027 13.7174C41.4652 13.4844 41.6369 13.2382 41.7879 13.0084C41.997 12.6903 42.2171 12.3299 42.3579 11.9832C42.8954 10.764 43.1054 9.69901 42.9502 8.79558C42.7845 7.831 42.2205 7.16305 41.486 6.79096C40.7952 6.441 40.0031 6.37264 39.3076 6.43665C38.8536 6.47843 38.3986 6.58025 37.9805 6.73096C37.9683 6.72303 37.9561 6.71522 37.9438 6.70752L37.9137 6.75558L37.9438 6.70751C37.4259 6.38254 36.6997 6.23703 36.1529 6.16032C36.0241 6.14225 35.8955 6.12681 35.7691 6.11371C35.8863 5.32253 35.9979 4.33724 35.9979 3.51489C35.9979 2.75323 35.8127 2.12939 35.4458 1.67483C35.0829 1.22529 34.5825 1 34.1174 1C33.6291 1 33.1831 1.26978 32.8556 1.62191C32.5079 1.99566 32.2199 2.53094 32.0218 3.24894L32.9858 3.51489L32.0218 3.24894C31.8838 3.74931 31.4897 4.63608 31.0072 5.60748C30.7667 6.09156 30.5153 6.57525 30.2834 7.00943C29.6847 6.60617 28.9444 6.26932 28.1144 6.17029C26.5977 5.9893 25.0179 6.62879 23.7149 8.4975C23.6791 8.5488 23.6438 8.59952 23.6091 8.64967C22.8562 8.59996 22.091 8.57444 21.3158 8.57444C20.5311 8.57444 19.7567 8.60059 18.995 8.65151C17.7465 8.22489 16.3323 8.24442 14.9975 9.16342C14.2505 9.30708 13.5222 9.47565 12.8153 9.66762C11.8228 8.79199 10.5797 7.94916 9.27288 7.63057C8.50135 7.44246 7.66817 7.4281 6.85561 7.74013C6.03869 8.05384 5.34011 8.66008 4.77827 9.54219C3.38399 11.7313 2.77873 14.0571 2.56799 15.9682C1.57422 17.3898 1 18.9837 1 20.6836Z" stroke="black" stroke-width="2"/>
<defs>
<radialGradient id="paint0_radial_71_10" cx="0" cy="0" r="1" gradientUnits="userSpaceOnUse" gradientTransform="translate(32.181 6.0397) rotate(43.2628) scale(11.052 16.6751)">
<stop stop-color="#EBF5D5"/>
<stop offset="0.385" stop-color="#7AA92C"/>
</radialGradient>
<radialGradient id="paint1_radial_71_10" cx="0" cy="0" r="1" gradientUnits="userSpaceOnUse" gradientTransform="translate(32.181 6.0397) rotate(43.2628) scale(11.052 16.6751)">
<stop stop-color="#EBF5D5"/>
<stop offset="0.385" stop-color="#7AA92C"/>
</radialGradient>
</defs>
</svg>
