<svg width="40" height="40" viewBox="0 0 40 40" fill="none" xmlns="http://www.w3.org/2000/svg">
<path d="M17.65 11.2251C17.8375 10.3844 17.6937 10.7844 16.4844 9.0157C15.3969 7.4282 15.6219 5.17195 14.3344 4.05007C13.5437 3.36257 12.5531 2.5907 8.86248 4.44695C7.58123 5.0907 5.02185 7.21257 2.12185 8.18445C-0.212523 8.9657 1.08123 9.90945 1.5781 10.0844C3.34685 10.7063 5.68748 9.36257 5.68748 9.36257C5.68748 9.36257 2.33123 11.5563 4.3031 12.0751C5.9031 12.4969 7.91873 10.5751 7.91873 10.5751C7.91873 10.5751 5.94373 12.6688 7.55935 13.2063C8.66873 13.5751 10.8719 11.4688 10.8719 11.4688C10.8719 11.4688 9.33123 13.6094 10.075 14.0626C11.2062 14.7501 13.0594 12.9782 13.0594 12.9782C13.0594 12.9782 11.5875 15.1282 12.3562 15.4782C13.5062 16.0032 15.2125 14.5282 15.2125 14.5282C15.2125 14.5282 17.3125 12.7282 17.65 11.2251Z" fill="#E0E0E0"/>
<path d="M11.15 4.30005C11.15 4.30005 9.13746 5.4813 8.40308 6.4313C8.30621 6.5563 7.70308 7.15942 8.23433 7.5063C8.36871 7.5938 8.76871 7.53755 9.00621 7.3938C10.0875 6.73755 12 5.1813 12.2093 5.26255C12.4187 5.3438 10.5 6.6063 9.88121 8.13442C9.64996 8.70942 10.1 9.12192 11.2718 8.4313C12.5468 7.6813 13.6437 6.35942 13.8281 6.36567C13.8281 6.36567 13.3156 7.25942 12.6593 7.96567C11.9906 8.68755 11.5187 9.42192 12.0125 9.65317C12.6343 9.94692 13.9781 9.15005 13.9781 9.15005C13.9781 9.15005 13.1218 10.1875 12.0125 10.4219C11.6218 10.5063 11.3156 10.4532 11.1281 10.2407C10.8437 9.91567 10.9531 9.41567 10.9531 9.41567C10.3625 9.65005 9.34371 10.0313 8.73746 9.5188C8.26558 9.1188 8.90933 7.94692 8.90933 7.94692C8.90933 7.94692 7.76871 8.57817 7.11871 8.38755C6.78121 8.28755 6.26558 7.80005 7.01871 6.76567C8.20621 5.15005 11.15 4.30005 11.15 4.30005ZM13.5562 15.6657C14.8593 13.9719 16.1625 12.2813 17.4656 10.5875L17.3531 10.1C17.2968 9.92817 16.7843 9.9063 16.075 10.3157C15.6 10.5907 14.7281 11.5782 14.1687 11.0344C13.7812 10.6594 14.8937 9.3188 14.8937 9.3188C14.7406 9.32192 13.5062 10.1469 13.3093 10.975C13.1406 11.6782 13.3031 12.5032 14.8906 11.7C14.9375 11.675 14.9875 11.6469 15.0343 11.6188C14.8343 11.9344 14.6531 12.2657 14.5 12.6032C14.0562 13.5782 13.7937 14.6219 13.5562 15.6657Z" fill="#BDBDBD"/>
<path d="M25.4343 3.47803L25.4562 3.49365L25.4343 3.47803Z" fill="url(#paint0_linear_28_142)"/>
<path d="M27.2281 22.1343C24.0874 26.8406 21.4468 32.025 15.4406 33.6124C15.3781 33.6281 15.3124 33.6093 15.2687 33.5625L5.45619 22.7343C5.16556 22.4125 5.30931 21.9031 5.72181 21.7687C9.75619 20.4437 12.2749 17.2875 14.5187 13.9218C17.6124 9.28745 20.2624 4.18745 26.0781 2.51558C26.2999 2.4312 26.5593 2.48433 26.7281 2.6687C28.0312 4.1062 37.8593 13.4625 37.8749 13.4812C37.8812 13.4843 29.6374 18.5218 27.2281 22.1343Z" fill="#66BB6A"/>
<path d="M18.1593 24.2844C17.9468 24.0719 17.6937 23.9657 17.4 23.9688C17.1062 23.9719 16.725 24.0907 16.2531 24.325C15.6125 24.6657 15.0562 24.825 14.5906 24.8094C14.125 24.7907 13.7062 24.5969 13.3375 24.225C12.9593 23.8469 12.7593 23.425 12.7406 22.9625C12.7187 22.5 12.8781 22.0532 13.2187 21.6219L12.6218 21.0219C12.5797 20.9789 12.5562 20.9212 12.5562 20.861C12.5562 20.8008 12.5797 20.743 12.6218 20.7L12.8156 20.5063C12.9031 20.4188 13.0468 20.4188 13.1375 20.5063L13.7375 21.1094C14.1781 20.775 14.6437 20.6375 15.1312 20.6938C15.5687 20.7469 16 20.9625 16.4218 21.35C16.5031 21.425 16.5031 21.5563 16.425 21.6344L16.0687 21.9907C15.9937 22.0657 15.8718 22.0657 15.7937 21.9938C15.5125 21.75 15.2218 21.6094 14.925 21.5782C14.5781 21.5407 14.2718 21.6532 14.0093 21.9157C13.7343 22.1907 13.5937 22.4719 13.5906 22.7563C13.5875 23.0438 13.7125 23.3157 13.9656 23.5688C14.2 23.8063 14.4656 23.9157 14.7593 23.9032C15.0531 23.8907 15.4312 23.7657 15.9 23.5282C16.3687 23.2907 16.7656 23.1438 17.1031 23.0844C17.4375 23.025 17.7437 23.0407 18.0187 23.1282C18.2937 23.2188 18.5531 23.3844 18.7968 23.6282C19.1843 24.0188 19.3812 24.45 19.3843 24.9219C19.3875 25.3938 19.2 25.8625 18.8187 26.3282L19.3187 26.8282C19.4062 26.9157 19.4062 27.0594 19.3187 27.15L19.1281 27.3407C19.0406 27.4282 18.8968 27.4282 18.8062 27.3407L18.3062 26.8407C17.8375 27.2282 17.3468 27.4125 16.8375 27.3875C16.3843 27.3657 15.95 27.1719 15.5375 26.8063C15.5177 26.7884 15.5018 26.7666 15.4908 26.7422C15.4799 26.7179 15.4741 26.6915 15.4738 26.6648C15.4735 26.6381 15.4787 26.6116 15.4891 26.587C15.4995 26.5624 15.5149 26.5403 15.5343 26.5219L15.8968 26.1625C15.9687 26.0907 16.0843 26.0844 16.1625 26.15C16.4406 26.3907 16.7281 26.5125 17.025 26.5188C17.3656 26.525 17.6906 26.3719 18 26.0625C18.3031 25.7625 18.4687 25.45 18.4968 25.1344C18.5187 24.8188 18.4093 24.5344 18.1593 24.2844Z" fill="white"/>
<path d="M18.9593 26.4813L18.3031 26.8469L13.2312 21.6407L13.0593 21.4657L13.7375 21.1125L18.8093 26.3313L18.9593 26.4813Z" fill="white"/>
<path opacity="0.5" d="M23.7125 18.7405C26.2013 18.7405 28.2188 16.723 28.2188 14.2343C28.2188 11.7455 26.2013 9.72803 23.7125 9.72803C21.2238 9.72803 19.2063 11.7455 19.2063 14.2343C19.2063 16.723 21.2238 18.7405 23.7125 18.7405Z" fill="#2E7D32"/>
<path d="M28.8 24.5063C27.1907 26.9188 24.8719 31.5219 21.6782 34.0532C18.7469 36.3782 15.05 37.525 15.05 37.525L4.87817 25.6125L5.30005 22.3438L15.275 33.5657C15.3157 33.6094 15.3782 33.6313 15.4375 33.6157C21.4469 32.0282 24.0875 26.8438 27.2282 22.1375C29.6375 18.525 33.2407 14.675 37.8782 13.4875C38.2469 13.8938 38.0844 17.3 37.6813 17.4344C33.5719 18.7969 31.05 21.1282 28.8 24.5063Z" fill="#2E7D32"/>
<path d="M24.6406 26.1L25.5844 29.5844C25.5844 29.5844 28.4594 25.3781 28.925 24.3594L27.8813 21.2188C26.4875 22.9531 24.6406 26.1 24.6406 26.1Z" fill="#FFC06C"/>
<path d="M24.3969 5.31572C24.6375 5.6626 25.0594 6.02197 25.7375 6.23135C25.9781 6.30635 26.2312 6.34385 26.4844 6.34385C27.0219 6.34385 27.4719 6.17822 27.775 6.0251C28.5344 6.7876 29.4844 7.71572 30.4031 8.61572C31.3031 9.49697 32.2281 10.4032 32.9812 11.1563C32.7375 11.5282 32.5437 12.0907 32.625 12.8501C32.6625 13.2001 32.9094 13.5563 33.1719 13.847C31.5094 14.9157 28.3188 17.2907 25.0469 21.4782C24.3562 22.3626 23.6812 23.3438 23.0312 24.2907C21.4125 26.647 19.7406 29.0782 17.5156 30.5657C17.2531 30.1376 16.7687 29.6188 15.9031 29.4032C15.6937 29.3501 15.4875 29.3251 15.2906 29.3251C14.7344 29.3251 14.2969 29.5313 13.9844 29.7751L9.26562 24.3501C9.6625 24.0407 10.0344 23.5126 10.0719 22.697C10.0906 22.3157 9.8875 21.9688 9.65625 21.7063C11.9562 20.0032 14.3844 17.2876 15.6906 15.3376C15.8812 15.0532 16.0781 14.7563 16.2812 14.4501C18.325 11.3657 21.0938 7.20322 24.3969 5.31572ZM24.6437 4.58447C20.6687 6.55322 17.5031 11.6813 15.25 15.0376C13.775 17.2345 11.1094 20.1001 8.8125 21.647C8.8125 21.647 9.56562 22.1813 9.54062 22.6657C9.47812 23.9657 8.42188 24.1845 8.42188 24.1845L13.9688 30.5595C13.9688 30.5595 14.375 29.847 15.2875 29.847C15.4344 29.847 15.5969 29.8657 15.7719 29.9095C17.0281 30.222 17.2812 31.3282 17.2812 31.3282C20.825 29.2657 22.9656 24.9938 25.4594 21.797C28.8438 17.4626 32.2094 15.0063 34.0312 13.9282C34.0312 13.9282 33.1937 13.2501 33.1469 12.7876C33.0187 11.572 33.7063 11.1345 33.7063 11.1345C32.0969 9.50635 29.4531 6.97197 27.8531 5.3501C27.8531 5.3501 27.2719 5.80635 26.4812 5.80635C26.2937 5.80635 26.0938 5.78135 25.8906 5.71885C24.7406 5.37197 24.6437 4.58447 24.6437 4.58447Z" fill="#2E7D32"/>
<path d="M16.8187 10.4126L13.7781 15.0095L24.6406 26.1001C24.6406 26.1001 26.4156 23.2938 27.8781 21.2188L16.8187 10.4126Z" fill="#FFECB3"/>
<path opacity="0.68" d="M28.3188 22.5376C28.3188 22.5376 26.175 23.6282 25.5906 26.9532C25.3688 28.2095 25.5875 29.5845 25.5875 29.5845L27.3563 26.8626L28.6219 23.0782L28.3188 22.5376Z" fill="#D69136"/>
<path d="M27.703 23.2595C28.3249 22.6626 28.5311 22.4782 30.4749 22.3376C32.3936 22.197 33.2749 21.3564 35.6999 21.8595C36.7249 22.072 38.3499 23.0095 37.9374 26.747C37.7811 28.172 37.8186 31.4657 38.4905 34.4501C39.0311 36.8501 37.553 36.2345 37.1468 35.9001C35.6968 34.7095 35.6343 32.0126 35.6343 32.0126C35.6343 32.0126 35.4968 36.0189 34.0312 34.6032C32.8437 33.4532 33.4405 30.7345 33.4405 30.7345C33.4405 30.7345 32.6718 33.5095 31.3749 32.4032C30.4843 31.6439 31.1468 28.6689 31.1468 28.6689C31.1468 28.6689 30.1124 31.097 29.3437 30.6939C28.1687 30.0814 28.7249 27.5782 28.7249 27.5782C28.7249 27.5782 27.6499 29.9501 26.9499 29.472C25.9061 28.7595 26.2843 26.5376 26.2843 26.5376C26.2843 26.5376 26.5905 24.3251 27.703 23.2595Z" fill="#E0E0E0"/>
<path d="M36.9813 24.7749C36.9813 24.7749 37.1313 26.7062 36.997 27.8593C36.9126 28.5749 36.8751 29.2312 36.2188 29.1343C36.0595 29.1093 35.6876 28.7999 35.622 27.6093C35.5532 26.3468 35.8157 24.678 35.6313 24.553C35.447 24.4249 35.4376 26.6155 34.5251 27.9874C34.1813 28.503 33.6032 28.5593 33.5126 27.1999C33.4126 25.7218 34.1782 23.9718 34.0688 23.8218C34.0688 23.8218 33.422 24.6187 33.047 25.7468C32.672 26.8749 32.5063 27.4062 32.0657 27.0812C31.2751 26.4999 32.4345 24.1843 32.4345 24.1843C32.4345 24.1843 31.5845 24.9437 31.2157 26.0062C30.9813 26.6812 31.1095 27.7905 31.7095 28.0718C32.4157 28.403 32.8282 27.8124 32.8282 27.8124C32.8282 27.8124 32.9782 29.703 33.9001 29.6624C34.7845 29.6218 35.0095 28.6249 35.0095 28.6249C35.0095 28.6249 34.972 29.5874 35.8657 30.2468C36.3001 30.5687 37.3095 30.6218 37.4345 29.3468C37.6376 27.278 36.9813 24.7749 36.9813 24.7749ZM29.7095 24.0968C29.5188 24.0499 29.2438 24.9093 28.9001 25.3937C28.7688 25.5749 28.4876 25.9468 28.0563 25.9155C27.6251 25.8843 27.9657 24.6155 27.8657 24.6843C27.7657 24.753 27.3626 25.4312 27.522 26.2187C27.5657 26.4374 27.7876 26.6968 28.0063 26.7312C28.8251 26.8624 29.1845 25.8562 29.1845 25.8562C29.1845 25.8562 29.0626 27.0593 29.872 27.1843C30.8501 27.3343 31.0501 25.7937 30.9626 25.7374C30.8751 25.6812 30.5595 26.7062 29.8626 26.2687C29.2907 25.9062 29.9001 24.1468 29.7095 24.0968Z" fill="#BDBDBD"/>
<path d="M4.87817 25.6093L15.0125 37.4812C15.0125 37.4812 15.4657 36.8093 15.5688 35.7625C15.6594 34.85 15.3407 33.6375 15.3407 33.6375L5.30005 22.3406L4.87817 25.6093Z" fill="#206022"/>
<defs>
<linearGradient id="paint0_linear_28_142" x1="25.4457" y1="3.48637" x2="25.4457" y2="3.48637" gradientUnits="userSpaceOnUse">
<stop stop-color="#43A047"/>
<stop offset="0.999" stop-color="#66BB6A"/>
</linearGradient>
</defs>
</svg>
