<svg width="21" height="21" viewBox="0 0 21 21" fill="none" xmlns="http://www.w3.org/2000/svg">
<path d="M13.0961 3.90407C12.4946 3.29138 11.7776 2.80394 10.9866 2.4699C10.1956 2.13586 9.34633 1.96185 8.48772 1.9579C7.62911 1.95396 6.77823 2.12016 5.98421 2.44692C5.1902 2.77367 4.46879 3.2545 3.86166 3.86164C3.25452 4.46877 2.77369 5.19018 2.44694 5.98419C2.12018 6.77821 1.95398 7.62909 1.95792 8.4877C1.96187 9.34631 2.13588 10.1956 2.46992 10.9866C2.80396 11.7776 3.2914 12.4945 3.90409 13.0961C5.12684 14.2966 6.77418 14.9656 8.48772 14.9578C10.2013 14.9499 11.8424 14.2657 13.054 13.054C14.2657 11.8424 14.9499 10.2012 14.9578 8.4877C14.9657 6.77416 14.2966 5.12682 13.0961 3.90407ZM2.49009 2.49007C4.02291 0.957632 6.08324 0.068645 8.24977 0.00490101C10.4163 -0.0588429 12.5253 0.707472 14.1456 2.14714C15.7659 3.58681 16.7749 5.59106 16.9665 7.75005C17.158 9.90903 16.5176 12.0596 15.1761 13.7621L20.5211 19.1071L19.1071 20.5211L13.7621 15.1761C12.0591 16.5126 9.91034 17.1491 7.75415 16.9557C5.59796 16.7622 3.5968 15.7535 2.15887 14.1352C0.720938 12.5169 -0.0454147 10.4109 0.0161353 8.24697C0.0776853 6.083 0.962501 4.02403 2.49009 2.49007Z" fill="black"/>
</svg>
