<svg width="44" height="44" viewBox="0 0 44 44" fill="none" xmlns="http://www.w3.org/2000/svg">
<path d="M3.30435 27.6184L8.52174 33.7555C11.5652 37.2474 32.3478 37.2474 35.4783 33.7555L40.6957 27.6184C40.2317 28.0702 39.6521 28.5008 38.9705 28.9053C35.4365 31.0024 29.1573 32.3973 22 32.3973C14.8427 32.3973 8.56348 31.0024 5.02954 28.9053C4.34786 28.5008 3.76833 28.0702 3.30435 27.6184Z" fill="#EA5220"/>
<path d="M8.52174 33.7555L13.3043 39.3811C16.3478 42.873 27.5652 42.873 30.6957 39.3811L35.4783 33.7555C32.3478 37.2474 11.5652 37.2474 8.52174 33.7555Z" fill="#FEF4E3"/>
<path d="M27.682 20.7174C29.6893 20.8359 33.4328 21.9887 35.6249 25.8499C35.8978 26.3304 36.1415 26.8513 36.3485 27.4153C37.4993 27.838 38.4017 28.3344 38.9705 28.9053C39.6521 28.5008 40.2317 28.0702 40.6957 27.6184C41.5384 26.7978 42 25.9074 42 24.9769C42 21.5278 35.6571 18.6283 27.0628 17.7964L27.0728 17.8275C27.168 18.1224 27.1819 18.1654 27.1819 18.4296C28.498 18.4108 30.8696 18.4718 29.8261 18.8661C29.0642 19.154 28.2434 20.0107 27.682 20.7174Z" fill="#C8B99F"/>
<path d="M2 24.9769C2 25.9074 2.46155 26.7978 3.30435 27.6184C3.76833 28.0702 4.34786 28.5008 5.02954 28.9053C5.53623 28.3421 6.40212 27.8489 7.53577 27.4267C7.7392 26.77 8.02607 26.0895 8.38543 25.4134C8.95216 24.3471 9.69916 23.2918 10.5834 22.358V18.8836C5.39527 20.2241 2 22.4534 2 24.9769Z" fill="#C8B99F"/>
<path d="M35.6249 25.8499C33.4328 21.9887 29.6893 20.8359 27.682 20.7174C27.6667 20.7366 27.6516 20.7557 27.6367 20.7747C27.4494 21.0137 27.2935 21.2328 27.1819 21.4032C26.6183 21.3688 25.4656 21.3781 24.2857 21.4026C23.5456 21.418 22.7948 21.4393 22.1721 21.4596C21.8994 21.4685 21.6512 21.4771 21.4393 21.485C21.4277 21.5419 21.4154 21.5976 21.4025 21.6522C21.1297 22.8056 20.579 23.4546 20.2609 23.6675C18.5217 24.3658 18.697 23.231 18.9565 22.358C19.1826 21.6274 19.8885 20.0362 20.9034 19.5162C20.5952 19.3276 20.3261 19.1671 20.2609 19.1473C19.6812 19.6186 18.4348 20.7409 18.087 21.4596C17.6522 21.6767 16.7826 21.8111 16.7826 20.6121C16.7826 20.1766 17.1649 19.6078 17.7211 19.0142C17.7414 18.9925 17.762 18.9708 17.7827 18.9491C17.1903 18.9491 16.0438 19.1754 15.4783 19.3155C15.0503 19.4215 14.6314 19.5644 14.2233 19.7391C13.7568 19.9388 13.3046 20.1801 12.8696 20.4556C12.0383 20.9821 11.2695 21.6334 10.5834 22.358C9.69916 23.2918 8.95216 24.3471 8.38543 25.4134C8.02607 26.0895 7.7392 26.77 7.53577 27.4267C6.40212 27.8489 5.53623 28.3421 5.02954 28.9053C8.56348 31.0024 14.8427 32.3973 22 32.3973C29.1573 32.3973 35.4365 31.0024 38.9705 28.9053C38.4017 28.3344 37.4993 27.838 36.3485 27.4153C36.1415 26.8513 35.8978 26.3304 35.6249 25.8499Z" fill="#ECE5DC"/>
<path d="M10.5834 22.358C11.2695 21.6334 12.0383 20.9821 12.8696 20.4556V5.71954C12.0285 5.54263 11.297 5.34841 10.5834 5.17167V10.1364V18.8836V22.358Z" fill="#ECE5DC"/>
<path d="M15.4783 19.3155V6.13034C14.4751 6.02447 13.6279 5.87904 12.8696 5.71954V20.4556C13.3046 20.1801 13.7568 19.9388 14.2233 19.7391C14.6314 19.5644 15.0503 19.4215 15.4783 19.3155Z" fill="#ECE5DC"/>
<path d="M15.4783 19.3155C16.0438 19.1754 17.1903 18.9491 17.7827 18.9491C17.8932 18.8334 18.01 18.717 18.1315 18.6005C17.9678 18.5676 17.8071 18.5381 17.6522 18.5133C17.3274 18.4612 17.0285 18.4296 16.7826 18.4296C15.4783 18.4296 15.913 16.8914 17.2174 17.1201C17.3459 17.1379 17.4924 17.16 17.6522 17.1864V10.1364V6.27967C16.8493 6.25131 16.1308 6.19919 15.4783 6.13034V19.3155Z" fill="#ECE5DC"/>
<path d="M31.1304 4.02548C29.5362 4.60746 27.2091 5.91716 22.1721 6.20792C20.4053 6.30991 18.923 6.32455 17.6522 6.27967V10.1364C18.9565 10.1364 20.3726 9.08487 22.1721 8.39047C26.9593 6.5431 33.3546 4.49251 37.6522 2.71601C38.0604 2.58619 38.5217 2.71611 38.087 2.27952C37.073 1.26134 32.8696 3.29799 31.1304 4.02548Z" fill="#EA5220"/>
<path d="M9.3913 4.89845C7.30435 4.51617 5.91304 4.66785 5.91304 5.65618C5.83821 6.56761 6.6675 8.73966 10.5834 10.1364V5.17167C10.1857 5.07316 9.79361 4.98008 9.3913 4.89845Z" fill="#EA5220"/>
<path d="M27.1819 21.4032C27.2935 21.2328 27.4494 21.0137 27.6367 20.7747C27.6516 20.7557 27.6667 20.7366 27.682 20.7174C28.2434 20.0107 29.0642 19.154 29.8261 18.8661C30.8696 18.4718 28.498 18.4108 27.1819 18.4296C27.1819 18.1654 27.168 18.1224 27.0728 17.8275L27.0628 17.7964C27.0014 17.606 26.9116 17.379 26.7826 17.1201C26.5442 16.6415 25.8838 17.0923 25.3052 17.6575C25.0395 17.917 24.7911 18.2007 24.6087 18.4296C23.8514 18.3483 22.4939 18.3685 23.1219 19.0997C23.7499 19.8308 23.0461 20.3083 22.6158 20.4556C22.3803 20.4908 21.9619 20.7409 22.1721 21.4596C22.7948 21.4393 23.5456 21.418 24.2857 21.4026C25.4656 21.3781 26.6183 21.3688 27.1819 21.4032Z" fill="#98CE23"/>
<path d="M18.9565 22.358C18.697 23.231 18.5217 24.3658 20.2609 23.6675C20.579 23.4546 21.1297 22.8056 21.4025 21.6522C21.4154 21.5976 21.4277 21.5419 21.4393 21.485C21.5566 21.1773 21.8737 20.5 22.2035 20.2528C22.1379 20.2361 22.0699 20.2107 22 20.1757C21.9254 20.1512 21.3696 19.8015 20.9034 19.5162C19.8885 20.0362 19.1826 21.6274 18.9565 22.358Z" fill="#FF6836"/>
<path d="M18.087 21.4596C18.4348 20.7409 19.6812 19.6186 20.2609 19.1473C19.6753 18.9697 18.8735 18.7498 18.1315 18.6005C18.01 18.717 17.8932 18.8334 17.7827 18.9491C17.762 18.9708 17.7414 18.9925 17.7211 19.0142C17.1649 19.6078 16.7826 20.1766 16.7826 20.6121C16.7826 21.8111 17.6522 21.6767 18.087 21.4596Z" fill="#FF6836"/>
<path d="M22.8696 17.1201C23.2174 15.7234 21.8551 15.9562 21.1304 16.2472C20.6462 16.5664 20.0001 17.0257 19.3544 17.5407C20.01 17.7078 20.6577 17.9153 21.1304 18.1564C21.5965 17.9036 21.9455 17.7074 22.2035 17.557C22.7157 17.2585 22.8696 17.1407 22.8696 17.1201Z" fill="#FF6836"/>
<path d="M17.2174 17.1201C15.913 16.8914 15.4783 18.4296 16.7826 18.4296C17.0285 18.4296 17.3274 18.4612 17.6522 18.5133C17.8071 18.5381 17.9678 18.5676 18.1315 18.6005C18.8735 18.7498 19.6753 18.9697 20.2609 19.1473C20.3261 19.1671 20.5952 19.3276 20.9034 19.5162C21.3696 19.8015 21.9254 20.1512 22 20.1757C22.0699 20.2107 22.1379 20.2361 22.2035 20.2528C22.9546 20.4438 23.3887 19.4947 22.6158 18.8661C22.4987 18.7709 21.3006 18.2432 21.1304 18.1564C20.6577 17.9153 20.01 17.7078 19.3544 17.5407C18.7503 17.3867 18.1394 17.2669 17.6522 17.1864C17.4924 17.16 17.3459 17.1379 17.2174 17.1201Z" fill="#FF6836"/>
<path d="M23.1219 19.0997C22.4939 18.3685 23.8514 18.3483 24.6087 18.4296C24.7911 18.2007 25.0395 17.917 25.3052 17.6575C24.2949 17.5952 23.259 17.5609 22.2035 17.557C21.9455 17.7074 21.5965 17.9036 21.1304 18.1564C21.3006 18.2432 22.4987 18.7709 22.6158 18.8661C23.3887 19.4947 22.9546 20.4438 22.2035 20.2528C21.8737 20.5 21.5566 21.1773 21.4393 21.485C21.6512 21.4771 21.8994 21.4685 22.1721 21.4596C21.9619 20.7409 22.3803 20.4908 22.6158 20.4556C23.0461 20.3083 23.7499 19.8308 23.1219 19.0997Z" fill="#C8B99F"/>
<path d="M42 24.9769C42 26.4196 40.8904 27.7661 38.9705 28.9053M42 24.9769C42 21.5278 35.6571 18.6283 27.0628 17.7964M42 24.9769C42 25.9074 41.5384 26.7978 40.6957 27.6184M3.30435 27.6184C2.46155 26.7978 2 25.9074 2 24.9769C2 22.4534 5.39527 20.2241 10.5834 18.8836M3.30435 27.6184L13.3043 39.3811M3.30435 27.6184C3.76833 28.0702 4.34786 28.5008 5.02954 28.9053M3.30435 27.6184L8.52174 33.7555M13.3043 39.3811C16.3478 42.873 27.5652 42.873 30.6957 39.3811M13.3043 39.3811L8.52174 33.7555M30.6957 39.3811L40.6957 27.6184M30.6957 39.3811L35.4783 33.7555M40.6957 27.6184L35.4783 33.7555M40.6957 27.6184C40.2317 28.0702 39.6521 28.5008 38.9705 28.9053M8.52174 33.7555C11.5652 37.2474 32.3478 37.2474 35.4783 33.7555M7.21739 28.9053C7.26935 28.4358 7.37721 27.9385 7.53577 27.4267M17.7827 18.9491C17.1903 18.9491 16.0438 19.1754 15.4783 19.3155M17.7827 18.9491C17.8932 18.8334 18.01 18.717 18.1315 18.6005M17.7827 18.9491C17.762 18.9708 17.7414 18.9925 17.7211 19.0142M11.1304 29.7783C11.5652 25.8499 15.0435 22.2034 16.7826 21.7669M14.6087 30.6513C14.7787 29.1157 15.2808 27.7801 16.0552 26.7229C17.2617 25.0756 19.2008 23.6675 21.5021 23.6675M27.682 20.7174C29.6893 20.8359 33.4328 21.9887 35.6249 25.8499C35.8978 26.3304 36.1415 26.8513 36.3485 27.4153M27.682 20.7174C28.2434 20.0107 29.0642 19.154 29.8261 18.8661M27.682 20.7174C27.6667 20.7366 27.6516 20.7557 27.6367 20.7747M36.7826 28.9053C36.6659 28.3781 36.5197 27.8819 36.3485 27.4153M27.5678 23.231C30.0316 23.3765 33.3043 25.8499 33.7391 29.7783M27.3244 25.8499C29.0636 26.2864 30.6957 27.5959 30.6957 30.2148M26.3478 30.2148C26.5006 29.711 26.6494 29.1136 26.7826 28.4573C27.2148 26.3282 27.4821 23.5801 27.1819 21.4032M22 30.6513C23.1467 28.6942 24.7149 24.4663 24.2857 21.4026M18.087 30.6513C19.8211 28.492 22.1911 24.4532 21.4025 21.6522M5.02954 28.9053C8.56348 31.0024 14.8427 32.3973 22 32.3973C29.1573 32.3973 35.4365 31.0024 38.9705 28.9053M5.02954 28.9053C5.53623 28.3421 6.40212 27.8489 7.53577 27.4267M38.9705 28.9053C38.4017 28.3344 37.4993 27.838 36.3485 27.4153M7.53577 27.4267C7.7392 26.77 8.02607 26.0895 8.38543 25.4134C8.95216 24.3471 9.69916 23.2918 10.5834 22.358M10.5834 22.358C11.2695 21.6334 12.0383 20.9821 12.8696 20.4556M10.5834 22.358V18.8836M10.5834 5.12813V5.17167M12.8696 5.51719V5.71954M12.8696 20.4556C13.3046 20.1801 13.7568 19.9388 14.2233 19.7391C14.6314 19.5644 15.0503 19.4215 15.4783 19.3155M12.8696 20.4556V5.71954M15.4783 5.88669V6.13034M15.4783 19.3155V6.13034M17.6522 6.12213V6.27967M21.4393 21.485C21.6512 21.4771 21.8994 21.4685 22.1721 21.4596M21.4393 21.485C21.5566 21.1773 21.8737 20.5 22.2035 20.2528M21.4393 21.485C21.4277 21.5419 21.4154 21.5976 21.4025 21.6522M27.1819 21.4032C26.6183 21.3688 25.4656 21.3781 24.2857 21.4026M27.1819 21.4032C27.2935 21.2328 27.4494 21.0137 27.6367 20.7747M29.8261 18.8661C30.8696 18.4718 28.498 18.4108 27.1819 18.4296C27.1819 18.1654 27.168 18.1224 27.0728 17.8275M29.8261 18.8661C29.0435 19.1618 28.1986 20.0578 27.6367 20.7747M22.1721 21.4596C21.9619 20.7409 22.3803 20.4908 22.6158 20.4556C23.0461 20.3083 23.7499 19.8308 23.1219 19.0997C22.4939 18.3685 23.8514 18.3483 24.6087 18.4296C24.7911 18.2007 25.0395 17.917 25.3052 17.6575M22.1721 21.4596C22.7948 21.4393 23.5456 21.418 24.2857 21.4026M20.2609 19.1473C19.6812 19.6186 18.4348 20.7409 18.087 21.4596C17.6522 21.6767 16.7826 21.8111 16.7826 20.6121C16.7826 20.1766 17.1649 19.6078 17.7211 19.0142M20.2609 19.1473C19.6753 18.9697 18.8735 18.7498 18.1315 18.6005M20.2609 19.1473C20.3261 19.1671 20.5952 19.3276 20.9034 19.5162M21.1304 18.1564C21.3006 18.2432 22.4987 18.7709 22.6158 18.8661C23.3887 19.4947 22.9546 20.4438 22.2035 20.2528M21.1304 18.1564C21.5965 17.9036 21.9455 17.7074 22.2035 17.557M21.1304 18.1564C20.6577 17.9153 20.01 17.7078 19.3544 17.5407M25.3052 17.6575C25.8838 17.0923 26.5442 16.6415 26.7826 17.1201C26.9116 17.379 27.0014 17.606 27.0628 17.7964M25.3052 17.6575C24.2949 17.5952 23.259 17.5609 22.2035 17.557M27.0628 17.7964L27.0728 17.8275M27.0628 17.7964C27.0662 17.8071 27.0696 17.8174 27.0728 17.8275M10.5834 18.8836V10.1364M17.6522 17.1864C17.4924 17.16 17.3459 17.1379 17.2174 17.1201C15.913 16.8914 15.4783 18.4296 16.7826 18.4296C17.0285 18.4296 17.3274 18.4612 17.6522 18.5133C17.8071 18.5381 17.9678 18.5676 18.1315 18.6005M17.6522 17.1864V10.1364M17.6522 17.1864C18.1394 17.2669 18.7503 17.3867 19.3544 17.5407M22.2035 17.557C22.7157 17.2585 22.8696 17.1407 22.8696 17.1201C23.2174 15.7234 21.8551 15.9562 21.1304 16.2472C20.6462 16.5664 20.0001 17.0257 19.3544 17.5407M10.5834 10.1364C6.6675 8.73966 5.83821 6.56761 5.91304 5.65618C5.91304 4.66785 7.30435 4.51617 9.3913 4.89845C9.79361 4.98008 10.1857 5.07316 10.5834 5.17167M10.5834 10.1364V5.17167M17.6522 10.1364C18.9565 10.1364 20.3726 9.08487 22.1721 8.39047C26.9593 6.5431 33.3546 4.49251 37.6522 2.71601C38.0604 2.58619 38.5217 2.71611 38.087 2.27952C37.073 1.26134 32.8696 3.29799 31.1304 4.02548C29.5362 4.60746 27.2091 5.91716 22.1721 6.20792C20.4053 6.30991 18.923 6.32455 17.6522 6.27967M17.6522 10.1364V6.27967M18.1315 18.6005C17.9872 18.7388 17.8495 18.8772 17.7211 19.0142M20.9034 19.5162C21.3696 19.8015 21.9254 20.1512 22 20.1757C22.0699 20.2107 22.1379 20.2361 22.2035 20.2528M20.9034 19.5162C19.8885 20.0362 19.1826 21.6274 18.9565 22.358C18.697 23.231 18.5217 24.3658 20.2609 23.6675C20.579 23.4546 21.1297 22.8056 21.4025 21.6522M12.8696 5.71954C12.0285 5.54263 11.297 5.34841 10.5834 5.17167M12.8696 5.71954C13.6279 5.87904 14.4751 6.02447 15.4783 6.13034M15.4783 6.13034C16.1308 6.19919 16.8493 6.25131 17.6522 6.27967" stroke="black"/>
<path d="M5.49284 4.3249C5.1175 4.66384 4.92392 5.11825 4.91349 5.61375C4.81771 7.07425 5.99589 9.34147 9.5834 10.8232V18.1185C7.24773 18.7817 5.24982 19.6411 3.77556 20.6654C2.17019 21.7808 1 23.2312 1 24.9769C1 26.2475 1.62683 27.3684 2.57187 28.3007L7.75986 34.4032L12.5425 40.0288L12.5424 40.0288L12.5505 40.0381C13.4943 41.121 14.9802 41.8469 16.5909 42.3068C18.2248 42.7734 20.1048 43 21.9674 43C23.8302 43 25.7148 42.7734 27.3584 42.3073C28.9798 41.8476 30.4765 41.1237 31.4402 40.0486L31.449 40.0388L31.4575 40.0288L36.2401 34.4032L41.4281 28.3007C42.3732 27.3684 43 26.2475 43 24.9769C43 23.7861 42.4482 22.7243 41.6008 21.8293C40.7582 20.9394 39.5792 20.1631 38.1823 19.5014C35.5164 18.2386 31.8877 17.314 27.7685 16.8639C27.7401 16.802 27.7099 16.7388 27.6777 16.6743C27.4909 16.2992 27.1477 16.0062 26.686 15.9345C26.2998 15.8746 25.963 15.9921 25.7519 16.0896C25.4646 16.2224 25.1858 16.4255 24.9411 16.6348C24.6038 16.6167 24.2639 16.6017 23.9216 16.5898C23.9073 16.3512 23.8503 16.1121 23.73 15.8853C23.4591 15.374 22.9913 15.1513 22.6043 15.0714C22.2352 14.9952 21.8661 15.0279 21.5772 15.0806C21.2772 15.1354 20.9913 15.2254 20.7578 15.3192L20.6642 15.3568L20.5801 15.4122C20.1706 15.6821 19.6551 16.0446 19.1191 16.4555C18.9607 16.4195 18.8044 16.3858 18.6522 16.3547V11.0021C19.1837 10.8665 19.6899 10.6466 20.1528 10.4284C20.4016 10.3112 20.6412 10.1929 20.8785 10.0757C21.4142 9.81129 21.9386 9.55244 22.5321 9.32341C24.6172 8.51877 27.0112 7.67471 29.4192 6.82572C29.7557 6.70708 30.0925 6.58834 30.4287 6.4696C33.1363 5.51342 35.8115 4.55643 37.9787 3.66309C37.9988 3.65881 38.0322 3.65301 38.0896 3.64513C38.0921 3.64478 38.0963 3.64426 38.102 3.64357C38.1573 3.63679 38.3515 3.61298 38.5093 3.55897C38.6027 3.52705 38.8358 3.43787 39.0244 3.20556C39.2604 2.91489 39.2972 2.56909 39.2355 2.29453C39.1856 2.07195 39.0767 1.90947 39.0165 1.82728C38.9469 1.73233 38.8682 1.64682 38.7955 1.57389L38.087 2.27952L38.7955 1.57388C38.1929 0.968742 37.3106 0.963218 36.7125 1.02593C36.0386 1.09659 35.2814 1.30616 34.5596 1.5508C33.4669 1.92118 32.3031 2.42781 31.4494 2.79941C31.1888 2.91289 30.957 3.01377 30.765 3.09434C30.486 3.19688 30.1929 3.3168 29.8754 3.44668C28.3033 4.0899 26.1336 4.97758 22.1145 5.20958C20.3741 5.31004 18.9232 5.32393 17.6875 5.28029C16.9069 5.25272 16.2117 5.20218 15.5832 5.13586C14.6182 5.03403 13.8049 4.89439 13.0754 4.74095C12.4437 4.60807 11.8816 4.46657 11.321 4.32548C11.1557 4.28387 10.9906 4.2423 10.8238 4.201C10.4208 4.10116 10.0129 4.00419 9.59015 3.91842L9.58084 3.91653L9.57149 3.91482C8.49807 3.71819 7.48049 3.63195 6.68598 3.78033C6.28466 3.85528 5.84489 4.00699 5.49284 4.3249ZM37.9316 1.64744C37.9317 1.64745 37.9302 1.64775 37.9272 1.64828C37.93 1.6477 37.9315 1.64743 37.9316 1.64744Z" stroke="black" stroke-width="2"/>
</svg>
