<svg width="40" height="42" viewBox="0 0 40 42" fill="none" xmlns="http://www.w3.org/2000/svg">
<path d="M16.5599 20.2198C17.4042 20.2198 18.0888 19.4326 18.0888 18.4615C18.0888 17.9262 17.8807 17.4466 17.5524 17.1242C17.2853 16.8618 16.9387 16.7033 16.5599 16.7033C16.4279 16.7033 16.2998 16.7225 16.1776 16.7587C16.042 16.7988 15.9137 16.8598 15.7954 16.9385C15.7699 16.9555 15.7448 16.9733 15.7203 16.9919C15.305 17.3063 15.0309 17.8471 15.0309 18.4615C15.0309 18.9075 15.1753 19.3146 15.4132 19.6245C15.4343 19.6521 15.4562 19.6788 15.4788 19.7048C15.7554 20.023 16.1377 20.2198 16.5599 20.2198Z" fill="#98CE23"/>
<path d="M21.3051 17.1242C21.3084 17.1247 21.3117 17.1253 21.315 17.1258C21.3848 17.137 21.4562 17.1429 21.5288 17.1429C22.2412 17.1429 22.8398 16.5825 23.0095 15.8242C23.012 15.8131 23.0144 15.802 23.0167 15.7909C23.0363 15.6957 23.0491 15.5975 23.0546 15.497C23.0567 15.4598 23.0577 15.4224 23.0577 15.3846C23.0577 14.4136 22.3732 13.6264 21.5288 13.6264C20.6844 13.6264 19.9999 14.4136 19.9999 15.3846C19.9999 16.2683 20.5667 16.9997 21.3051 17.1242Z" fill="#98CE23"/>
<path d="M24.4315 18.4615C24.4468 18.5401 24.4613 18.6197 24.475 18.7003C24.5993 19.4331 24.658 20.2501 24.6667 21.0989C26.4038 21.2164 28.8265 22.842 29.8246 25.5219C30.6942 25.2777 31.4886 24.7115 31.9778 23.7363C30.0507 19.8479 26.1962 18.5809 24.4315 18.4615Z" fill="#7A5334"/>
<path d="M24.6667 21.0989C24.6667 21.1024 24.6667 21.1059 24.6668 21.1094C24.6751 21.9706 24.6319 22.8644 24.5532 23.7363C25.4208 23.9857 26.3855 24.5182 26.9475 25.4141C27.181 25.4222 27.4151 25.4547 27.6444 25.5172C28.3361 25.7058 29.106 25.7237 29.8246 25.5219C28.8265 22.842 26.4038 21.2164 24.6667 21.0989Z" fill="#7A5334"/>
<path d="M24.5532 23.7363C24.548 23.794 24.5427 23.8517 24.5371 23.9092C24.4547 24.7694 24.3386 25.6046 24.2044 26.362C24.7311 25.8932 25.8333 25.3755 26.9475 25.4141C26.3855 24.5182 25.4208 23.9857 24.5532 23.7363Z" fill="#7A5334"/>
<path d="M21.5288 17.1429C21.4562 17.1429 21.3848 17.137 21.315 17.1258C21.3117 17.1253 21.3084 17.1247 21.3051 17.1242C22.9358 19.6246 21.6431 24.7559 20.4408 27.6149C21.3904 27.7624 22.6755 27.5291 24.2044 26.362C24.3386 25.6046 24.4547 24.7694 24.5371 23.9092C24.5427 23.8517 24.548 23.794 24.5532 23.7363C24.6319 22.8644 24.6751 21.9706 24.6668 21.1094C24.6667 21.1059 24.6667 21.1024 24.6667 21.0989C24.658 20.2501 24.5993 19.4331 24.475 18.7003C24.4613 18.6197 24.4468 18.5401 24.4315 18.4615C24.1893 17.217 23.7425 16.2456 23.0095 15.8242C22.8398 16.5825 22.2412 17.1429 21.5288 17.1429Z" fill="#7A5334"/>
<path d="M16.5599 16.7033C16.9387 16.7033 17.2853 16.8618 17.5524 17.1242C19.4591 18.0849 19.8422 19.953 19.4991 21.978C19.4831 22.0725 19.4655 22.1672 19.4464 22.2623C19.1895 23.5422 18.6609 24.8701 18.0581 26.0602C18.3082 26.2815 18.5732 26.5314 18.8532 26.8132C19.1363 27.1354 19.6812 27.497 20.4408 27.6149C21.6431 24.7559 22.9358 19.6246 21.3051 17.1242C20.5667 16.9997 19.9999 16.2683 19.9999 15.3846C19.8324 15.3846 19.6654 15.3856 19.4991 15.3876C18.1834 15.0042 17.0798 15.0118 16.1776 15.2345C15.7402 15.3425 15.3501 15.5011 15.006 15.6903C14.7301 15.8421 14.4838 16.0136 14.2665 16.1944C13.7151 16.6532 13.3508 17.1723 13.1632 17.5824C13.522 17.4065 13.8903 17.2627 14.2665 17.1559C14.7637 17.0148 15.2746 16.9385 15.7954 16.9385C15.9137 16.8598 16.042 16.7988 16.1776 16.7587C16.2998 16.7225 16.4279 16.7033 16.5599 16.7033Z" fill="#7A5334"/>
<path d="M19.4991 21.978C17.476 21.978 15.8344 22.9565 14.7737 24.6154C15.0752 24.3559 16.1235 24.3492 18.0581 26.0602C18.6609 24.8701 19.1895 23.5422 19.4464 22.2623C19.4655 22.1672 19.4831 22.0725 19.4991 21.978Z" fill="#7A5334"/>
<path d="M18.0888 18.4615C18.0888 19.4326 17.4042 20.2198 16.5599 20.2198C16.1377 20.2198 15.7554 20.023 15.4788 19.7048C15.4562 19.6788 15.4343 19.6521 15.4132 19.6245C14.1554 19.9861 11.863 22.5354 10.8766 25.6307C11.9094 25.8248 13.2075 25.6102 14.7737 24.6154C15.8344 22.9565 17.476 21.978 19.4991 21.978C19.8422 19.953 19.4591 18.0849 17.5524 17.1242C17.8807 17.4466 18.0888 17.9262 18.0888 18.4615Z" fill="#7A5334"/>
<path d="M9.96332 20.2198C9.18597 21.1601 8.52927 22.2229 8.03104 23.2967C8.40814 24.1698 9.35391 25.3445 10.8766 25.6307C11.863 22.5354 14.1554 19.9861 15.4132 19.6245C15.1753 19.3146 15.0309 18.9075 15.0309 18.4615C15.0309 17.8471 15.305 17.3063 15.7203 16.9919C15.7448 16.9733 15.7699 16.9555 15.7954 16.9385C15.2746 16.9385 14.7637 17.0148 14.2665 17.1559C13.8903 17.2627 13.522 17.4065 13.1632 17.5824C12.7532 17.7835 12.3556 18.0265 11.9731 18.304C11.2423 18.8342 10.5665 19.4901 9.96332 20.2198Z" fill="#7A5334"/>
<path d="M11.9731 3.87668L9.96332 4.03718V16.7209V20.2198C10.5665 19.4901 11.2423 18.8342 11.9731 18.304V3.87668Z" fill="#7A5334"/>
<path d="M14.2665 3.69353L11.9731 3.87668V18.304C12.3556 18.0265 12.7532 17.7835 13.1632 17.5824C13.3508 17.1723 13.7151 16.6532 14.2665 16.1944V3.69353Z" fill="#7A5334"/>
<path d="M16.1776 3.5409L14.2665 3.69353V16.1944C14.4838 16.0136 14.7301 15.8421 15.006 15.6903C15.3501 15.5011 15.7402 15.3425 16.1776 15.2345V3.5409Z" fill="#7A5334"/>
<path d="M5.08081 26.8132C8.18757 28.925 13.7077 30.3297 19.9999 30.3297C26.292 30.3297 31.8122 28.925 34.919 26.8132C34.419 26.2382 33.6257 25.7384 32.6139 25.3126C32.4319 24.7447 32.2177 24.2202 31.9778 23.7363C31.4886 24.7115 30.6942 25.2777 29.8246 25.5219C29.106 25.7237 28.3361 25.7058 27.6444 25.5172C27.4151 25.4547 27.181 25.4222 26.9475 25.4141C25.8333 25.3755 24.7311 25.8932 24.2044 26.362C22.6755 27.5291 21.3904 27.7624 20.4408 27.6149C19.6812 27.497 19.1363 27.1354 18.8532 26.8132C18.5732 26.5314 18.3082 26.2815 18.0581 26.0602C16.1235 24.3492 15.0752 24.3559 14.7737 24.6154C13.2075 25.6102 11.9094 25.8248 10.8766 25.6307C9.35391 25.3445 8.40814 24.1698 8.03104 23.2967C7.71512 23.9776 7.46292 24.6628 7.28409 25.3241C6.28747 25.7493 5.52625 26.246 5.08081 26.8132Z" fill="#FFDDA2"/>
<path d="M5.47529 4.3956L9.96332 4.03718L11.9731 3.87668L14.2665 3.69353L16.1776 3.5409L32.9956 2.1978V0C24.077 1.02564 6.08685 3.34066 5.47529 4.3956Z" fill="#C59B66"/>
<path d="M24.4315 18.4615C26.1962 18.5809 30.0507 19.8479 31.9778 23.7363C32.2177 24.2202 32.4319 24.7447 32.6139 25.3126C33.6257 25.7384 34.419 26.2382 34.919 26.8132C35.5182 26.4058 36.0277 25.9722 36.4356 25.5172C37.1765 24.6908 37.5823 23.7941 37.5823 22.8571C37.5823 19.173 31.309 16.1115 23.0546 15.497C23.0491 15.5975 23.0363 15.6957 23.0167 15.7909C23.0144 15.802 23.012 15.8131 23.0095 15.8242C23.7425 16.2456 24.1893 17.217 24.4315 18.4615Z" fill="#C8B99F"/>
<path d="M2.41748 22.8571C2.41748 23.7941 2.82324 24.6908 3.56416 25.5172C3.97206 25.9722 4.48153 26.4058 5.08081 26.8132C5.52625 26.246 6.28747 25.7493 7.28409 25.3241C7.46292 24.6628 7.71512 23.9776 8.03104 23.2967C8.52927 22.2229 9.18597 21.1601 9.96332 20.2198V16.7209C5.40233 18.0709 2.41748 20.3159 2.41748 22.8571Z" fill="#C8B99F"/>
<path d="M3.56416 25.5172L8.15088 31.6974C10.8265 35.2139 29.0969 35.2139 31.8489 31.6974L36.4356 25.5172C36.0277 25.9722 35.5182 26.4058 34.919 26.8132C31.8122 28.925 26.292 30.3297 19.9999 30.3297C13.7077 30.3297 8.18757 28.925 5.08081 26.8132C4.48153 26.4058 3.97206 25.9722 3.56416 25.5172Z" fill="#FEF4E3"/>
<path d="M8.15088 31.6974L12.3554 37.3626C15.0309 40.8791 24.8924 40.8791 27.6444 37.3626L31.8489 31.6974C29.0969 35.2139 10.8265 35.2139 8.15088 31.6974Z" fill="#FEF4E3"/>
<path d="M37.5823 22.8571C37.5823 24.3099 36.6068 25.6659 34.919 26.8132M37.5823 22.8571C37.5823 19.173 31.309 16.1115 23.0546 15.497M37.5823 22.8571C37.5823 23.7941 37.1765 24.6908 36.4356 25.5172M19.9999 15.3846C19.9999 14.4136 20.6844 13.6264 21.5288 13.6264C22.3732 13.6264 23.0577 14.4136 23.0577 15.3846C23.0577 15.4224 23.0567 15.4598 23.0546 15.497M19.9999 15.3846C19.8324 15.3846 19.6654 15.3856 19.4991 15.3876C18.1834 15.0042 17.0798 15.0118 16.1776 15.2345M19.9999 15.3846C19.9999 16.2683 20.5667 16.9997 21.3051 17.1242M19.9999 15.3846C19.9999 16.2722 20.5718 17.0062 21.315 17.1258M3.56416 25.5172C2.82324 24.6908 2.41748 23.7941 2.41748 22.8571C2.41748 20.3159 5.40233 18.0709 9.96332 16.7209M3.56416 25.5172L12.3554 37.3626M3.56416 25.5172C3.97206 25.9722 4.48153 26.4058 5.08081 26.8132M3.56416 25.5172L8.15088 31.6974M12.3554 37.3626C15.0309 40.8791 24.8924 40.8791 27.6444 37.3626M12.3554 37.3626L8.15088 31.6974M27.6444 37.3626L36.4356 25.5172M27.6444 37.3626L31.8489 31.6974M36.4356 25.5172C36.0277 25.9722 35.5182 26.4058 34.919 26.8132M36.4356 25.5172L31.8489 31.6974M8.15088 31.6974C10.8265 35.2139 29.0969 35.2139 31.8489 31.6974M7.0042 26.8132C7.04988 26.3404 7.1447 25.8395 7.28409 25.3241M15.7954 16.9385C15.2746 16.9385 14.7637 17.0148 14.2665 17.1559C13.8903 17.2627 13.522 17.4065 13.1632 17.5824M15.7954 16.9385C15.9137 16.8598 16.042 16.7988 16.1776 16.7587M15.7954 16.9385C15.7699 16.9555 15.7448 16.9733 15.7203 16.9919M10.4442 27.6923C10.512 26.9907 10.664 26.298 10.8766 25.6307M15.4132 19.6245C15.1753 19.3146 15.0309 18.9075 15.0309 18.4615M15.4132 19.6245C14.1554 19.9861 11.863 22.5354 10.8766 25.6307M15.4132 19.6245C15.4343 19.6521 15.4562 19.6788 15.4788 19.7048M13.502 28.5714C13.6515 27.025 14.0929 25.68 14.7737 24.6154M19.4991 21.978C17.476 21.978 15.8344 22.9565 14.7737 24.6154M19.4991 21.978C19.8422 19.953 19.4591 18.0849 17.5524 17.1242M19.4991 21.978C19.4831 22.0725 19.4655 22.1673 19.4464 22.2623M24.4315 18.4615C26.1962 18.5809 30.0507 19.8479 31.9779 23.7363M24.4315 18.4615C24.4468 18.5401 24.4613 18.6197 24.475 18.7003M24.4315 18.4615C24.1893 17.217 23.7425 16.2456 23.0095 15.8242M32.9956 26.8132C32.893 26.2822 32.7645 25.7826 32.6139 25.3126M24.6667 21.0989C26.4038 21.2164 28.8265 22.842 29.8246 25.5219M24.6667 21.0989C24.6667 21.1024 24.6667 21.1059 24.6668 21.1094M24.6667 21.0989C24.658 20.2501 24.5993 19.4331 24.475 18.7003M30.32 27.6923C30.2443 26.9092 30.0709 26.1834 29.8246 25.5219M24.5532 23.7363C25.4208 23.9857 26.3855 24.5182 26.9475 25.4141M24.5532 23.7363C24.548 23.794 24.5427 23.8517 24.5371 23.9092M24.5532 23.7363C24.6319 22.8644 24.6751 21.9706 24.6668 21.1094M27.6444 28.1319C27.6444 26.9911 27.376 26.097 26.9475 25.4141M23.8222 28.1319C23.9564 27.6245 24.0873 27.0229 24.2044 26.362M23.0095 15.8242C22.8398 16.5825 22.2412 17.1429 21.5288 17.1429M23.0095 15.8242C23.7888 16.2722 24.2445 17.3418 24.475 18.7003M23.0095 15.8242C23.012 15.8131 23.0144 15.802 23.0167 15.7909M19.9999 28.5714C20.1415 28.2945 20.2905 27.9725 20.4408 27.6149M21.3051 17.1242C22.9358 19.6246 21.6431 24.7559 20.4408 27.6149M21.3051 17.1242C21.3084 17.1247 21.3117 17.1253 21.315 17.1258M15.0309 18.4615C15.0309 18.9471 15.2021 19.3866 15.4788 19.7048M15.0309 18.4615C15.0309 17.8471 15.305 17.3063 15.7203 16.9919M21.5288 17.1429C21.4562 17.1429 21.3848 17.137 21.315 17.1258M21.5288 17.1429C22.2516 17.1429 22.8572 16.566 23.0167 15.7909M16.5599 28.5714C17.0386 27.8886 17.5724 27.0191 18.0581 26.0602M17.5524 17.1242C17.2853 16.8618 16.9387 16.7033 16.5599 16.7033C16.4279 16.7033 16.2998 16.7225 16.1776 16.7587M17.5524 17.1242C17.8807 17.4467 18.0888 17.9262 18.0888 18.4615C18.0888 19.4326 17.4042 20.2198 16.5599 20.2198C16.1377 20.2198 15.7554 20.023 15.4788 19.7048M17.5524 17.1242C19.548 18.1297 19.8746 20.1292 19.4464 22.2623M8.03104 23.2967C7.71512 23.9776 7.46292 24.6628 7.28409 25.3241M8.03104 23.2967C8.52927 22.2229 9.18597 21.1601 9.96332 20.2198M8.03104 23.2967C8.40814 24.1698 9.35391 25.3445 10.8766 25.6307M14.7737 24.6154C13.2075 25.6102 11.9094 25.8248 10.8766 25.6307M14.7737 24.6154C15.0752 24.3559 16.1235 24.3492 18.0581 26.0602M24.2044 26.362C22.6755 27.5291 21.3904 27.7624 20.4408 27.6149M24.2044 26.362C24.7311 25.8932 25.8333 25.3755 26.9475 25.4141M24.2044 26.362C24.3386 25.6046 24.4547 24.7694 24.5371 23.9092M31.9779 23.7363C32.2177 24.2202 32.4319 24.7447 32.6139 25.3126M31.9779 23.7363C31.4886 24.7115 30.6942 25.2777 29.8246 25.5219M5.08081 26.8132C8.18757 28.925 13.7077 30.3297 19.9999 30.3297C26.292 30.3297 31.8122 28.925 34.919 26.8132M5.08081 26.8132C5.52625 26.246 6.28747 25.7493 7.28409 25.3241M34.919 26.8132C34.419 26.2382 33.6257 25.7384 32.6139 25.3126M9.96332 20.2198C10.5665 19.4901 11.2423 18.8342 11.9731 18.304M9.96332 20.2198V16.7209M5.47529 4.3956L32.9956 2.1978M5.47529 4.3956C6.08685 3.34066 24.077 1.02564 32.9956 0V2.1978M5.47529 4.3956L9.96332 4.03718M32.9956 2.1978L16.1776 3.5409M9.96332 4.03718V16.7209M9.96332 4.03718L11.9731 3.87668M11.9731 3.87668V18.304M11.9731 3.87668L14.2665 3.69353M11.9731 18.304C12.3556 18.0265 12.7532 17.7835 13.1632 17.5824M14.2665 3.69353V16.1944M14.2665 3.69353L16.1776 3.5409M16.1776 3.5409V15.2345M16.1776 16.7587C16.0128 16.8075 15.8587 16.8871 15.7203 16.9919M13.1632 17.5824C13.3508 17.1723 13.7151 16.6532 14.2665 16.1944M23.0546 15.497C23.0491 15.5975 23.0363 15.6957 23.0167 15.7909M14.2665 16.1944C14.4838 16.0136 14.7301 15.8421 15.006 15.6903C15.3501 15.5011 15.7402 15.3425 16.1776 15.2345M18.0581 26.0602C18.3082 26.2815 18.5732 26.5314 18.8532 26.8132C19.1363 27.1354 19.6812 27.497 20.4408 27.6149M18.0581 26.0602C18.6609 24.8701 19.1895 23.5422 19.4464 22.2623M26.9475 25.4141C27.181 25.4222 27.4151 25.4547 27.6444 25.5172C28.3361 25.7058 29.106 25.7237 29.8246 25.5219M24.5371 23.9092C24.6259 22.9829 24.6756 22.0276 24.6668 21.1094M24.6668 21.1094C24.6585 20.2568 24.5998 19.4362 24.475 18.7003" stroke="black"/>
<path d="M5.5549 5.39243L8.96332 5.12023V15.9851C6.9153 16.6561 5.15826 17.5244 3.8573 18.5599C2.41408 19.7085 1.41748 21.1633 1.41748 22.8571C1.41748 24.0868 1.94732 25.1988 2.78767 26.1489L11.5524 37.9586L11.5523 37.9586L11.5595 37.9682C12.399 39.0715 13.73 39.8184 15.1751 40.2911C16.6363 40.7691 18.3133 41 19.9712 41C21.6293 41 23.3102 40.769 24.7797 40.2917C26.2336 39.8195 27.5742 39.0749 28.4319 37.9789L28.4398 37.9689L28.4474 37.9586L37.2121 26.1489C38.0525 25.1988 38.5823 24.0868 38.5823 22.8571C38.5823 20.4096 36.533 18.4702 33.8618 17.1319C31.2916 15.8442 27.8294 14.9374 23.942 14.5686C23.6368 13.5056 22.7489 12.6264 21.5288 12.6264C20.4206 12.6264 19.5864 13.3518 19.214 14.2814C18.4859 14.1173 17.8066 14.0592 17.1776 14.0872V4.46423L33.0752 3.19463L33.9956 3.12112V2.1978V0V-1.12159L32.8813 -0.993452C28.416 -0.479936 21.6774 0.356586 15.9744 1.19751C13.1252 1.61764 10.5206 2.04087 8.58352 2.42729C7.61824 2.61985 6.79672 2.80756 6.18659 2.9862C5.88441 3.07468 5.60578 3.16901 5.37786 3.27126C5.26434 3.32218 5.13952 3.38557 5.02235 3.46486C4.92064 3.53367 4.74017 3.66978 4.61015 3.89407L3.65351 5.54428L5.5549 5.39243Z" stroke="black" stroke-width="2"/>
</svg>
